<svg xmlns="http://www.w3.org/2000/svg" xmlns:xlink="http://www.w3.org/1999/xlink" viewBox="0 0 4251.71 4251.71"><defs><style>.cls-1,.cls-8{fill:#fff;}.cls-2,.cls-6,.cls-9{fill:none;stroke-miterlimit:10;}.cls-2,.cls-9{stroke:#2c296d;}.cls-2{stroke-width:70px;}.cls-3{fill:#ed1c24;}.cls-4{fill:url(#New_Gradient_Swatch_copy);}.cls-5{fill:#222160;}.cls-6{stroke:#262262;stroke-width:9px;}.cls-7{fill:#27245f;}.cls-8{stroke:#27245f;stroke-width:3px;}.cls-9{stroke-width:14px;}.cls-10{fill:url(#New_Gradient_Swatch_copy-2);}.cls-11{fill:url(#New_Gradient_Swatch_copy-3);}.cls-12{fill:url(#New_Gradient_Swatch_copy-4);}.cls-13{fill:url(#New_Gradient_Swatch_copy-5);}.cls-14{fill:url(#New_Gradient_Swatch_copy-6);}.cls-15{fill:url(#New_Gradient_Swatch_copy-7);}.cls-16{fill:url(#New_Gradient_Swatch_copy-8);}.cls-17{fill:url(#New_Gradient_Swatch_copy-9);}.cls-18{fill:url(#New_Gradient_Swatch_copy-10);}.cls-19{fill:url(#New_Gradient_Swatch_copy-11);}.cls-20{fill:url(#New_Gradient_Swatch_copy-12);}.cls-21{fill:url(#New_Gradient_Swatch_copy-13);}</style><linearGradient id="New_Gradient_Swatch_copy" x1="1871.84" y1="685.27" x2="2379.87" y2="3566.44" gradientUnits="userSpaceOnUse"><stop offset="0.07" stop-color="#343695"/><stop offset="0.11" stop-color="#333592"/><stop offset="0.41" stop-color="#2f2e7d"/><stop offset="0.71" stop-color="#2d2a71"/><stop offset="1" stop-color="#2c296d"/></linearGradient><linearGradient id="New_Gradient_Swatch_copy-2" x1="370" y1="2093.44" x2="527.86" y2="2093.44" xlink:href="#New_Gradient_Swatch_copy"/><linearGradient id="New_Gradient_Swatch_copy-3" x1="157.14" y1="1930.95" x2="487.77" y2="1930.95" gradientTransform="translate(-22.85 30.66) rotate(-0.38)" xlink:href="#New_Gradient_Swatch_copy"/><linearGradient id="New_Gradient_Swatch_copy-4" x1="218.55" y1="1983.43" x2="496.31" y2="1983.43" gradientTransform="translate(-22.85 30.66) rotate(-0.38)" xlink:href="#New_Gradient_Swatch_copy"/><linearGradient id="New_Gradient_Swatch_copy-5" x1="345.15" y1="2233.33" x2="393.61" y2="2233.33" xlink:href="#New_Gradient_Swatch_copy"/><linearGradient id="New_Gradient_Swatch_copy-6" x1="426.23" y1="2283.61" x2="470.28" y2="2283.61" xlink:href="#New_Gradient_Swatch_copy"/><linearGradient id="New_Gradient_Swatch_copy-7" x1="225.2" y1="2022.99" x2="416.96" y2="2022.99" gradientTransform="translate(-22.85 30.66) rotate(-0.38)" xlink:href="#New_Gradient_Swatch_copy"/><linearGradient id="New_Gradient_Swatch_copy-8" x1="5318.3" y1="2093.44" x2="5476.16" y2="2093.44" gradientTransform="matrix(-1, 0, 0, 1, 9216.28, 0)" xlink:href="#New_Gradient_Swatch_copy"/><linearGradient id="New_Gradient_Swatch_copy-9" x1="5105.22" y1="1963.6" x2="5435.85" y2="1963.6" gradientTransform="matrix(-1, -0.01, -0.01, 1, 9239.13, 30.66)" xlink:href="#New_Gradient_Swatch_copy"/><linearGradient id="New_Gradient_Swatch_copy-10" x1="5166.63" y1="2016.09" x2="5444.39" y2="2016.09" gradientTransform="matrix(-1, -0.01, -0.01, 1, 9239.13, 30.66)" xlink:href="#New_Gradient_Swatch_copy"/><linearGradient id="New_Gradient_Swatch_copy-11" x1="5293.45" y1="2233.33" x2="5341.91" y2="2233.33" gradientTransform="matrix(-1, 0, 0, 1, 9216.28, 0)" xlink:href="#New_Gradient_Swatch_copy"/><linearGradient id="New_Gradient_Swatch_copy-12" x1="5374.53" y1="2283.61" x2="5418.57" y2="2283.61" gradientTransform="matrix(-1, 0, 0, 1, 9216.28, 0)" xlink:href="#New_Gradient_Swatch_copy"/><linearGradient id="New_Gradient_Swatch_copy-13" x1="5173.29" y1="2055.65" x2="5365.04" y2="2055.65" gradientTransform="matrix(-1, -0.01, -0.01, 1, 9239.13, 30.66)" xlink:href="#New_Gradient_Swatch_copy"/></defs><g id="Layer_2" data-name="Layer 2"><g id="Layer_1-2" data-name="Layer 1"><circle class="cls-1" cx="2120.93" cy="2125.86" r="2090.86" transform="translate(-882 2122.37) rotate(-45)"/><circle class="cls-2" cx="2125.86" cy="2125.86" r="2090.86" transform="translate(-880.56 2125.86) rotate(-45)"/><path class="cls-3" d="M515.32,1165c-1.88,8.13-1.58,14.16.25,17.76,3.47,6,11.17,16.25,27.3,34.44,30.13,33.41,93.54,106,127.85,141.41.7,2.69-.46,7.63-2.43,11.8a16.1,16.1,0,0,1-6.65,7.46c-9.36-.1-23.18-.73-34-1.12l-36.83-.88c-12.39-.35-24-.72-30.15-.1,4.09,5.46,10,12.94,17,21.35l24.17,29.42c8,9.65,15.64,17.57,23.81,27.69.84,2.36-.31,7.31-2.58,12.12-1.66,3.53-3.68,5.32-6.65,7.46-15.89-1.22-50.82-2-80-2.43l-137.91-1.08c-23-.25-25.52.91-32.76,10.44l-5.38,7.27c-4.42,1-10.69-2.29-10.63-6.58,6.24-11.57,12.91-24.89,20.62-41.26,6.65-14.11,12.23-26.78,17.33-39.27,2.5-2,11.12.53,11.54,4.65l-1.76,6.23c-1.76,6.23-1.22,9.23,1,10.29s20.5,1.43,47.65,2.06l85.88,1.66c24.13.39,35.38-.19,44.9-.41-4.61-6.88-16.21-21.36-25.34-31.94l-7.34-8.56c-4.08-4.66-7.79-7.59-9.72-8.5s-9.72-1.84-13.53-2.06l-82.22-1.11c-19.52-.18-22.83,1-29.86,12.6l-1.83,3c-4.08,2-11.16-2.12-10.78-6.25,7.15-13.5,13.37-25.86,20-40,7.71-16.36,13.14-28.71,16.43-37.35,2.77-3.4,11.29,1,11.83,4l-1.29,6.06c-.85,4.3-1.83,9.72.41,10.78,2.57,1.21,6.71,1.59,11,1.65l26.68.81c8.1.28,18.72.2,25.86,0l-17.13-20.23-5.06-5.91c-9.62-11.2-17.43-19.59-19.36-20.5-2.24-1-3.81-.23-7.51,4.3l-7.69,10.5c-3.31,1.18-10.53-2.61-10.78-6.26,5-9,10.79-20.4,15.78-31,5.9-12.52,11.18-24.54,14.47-33.18,2.81-1.81,10.81,1.18,11.7,5.12l-2.31,9.89c-2.9,12-4,14.22,10,34.52,9.53,13.9,21.79,29.48,28.17,37.59,4.41,5.61,11.75,14.16,13.36,14.92,1,.45,3,1,9.23,1.21l39.51.19c21.58,0,34,.32,39.37.52-30-33-62.4-69.8-94.28-103.65-4.4-4.81-18.53-18.92-22.06-20.59-3.21-1.51-6.91,3-10.16,6.59l-5.26,6.15c-4.09,1.2-10.53-2.61-10.77-6.26,5.48-10,12-23,16.54-32.6,5.29-11.23,9.35-20.68,12.94-30,3-2.13,10.18.88,11.69,4.33Z"/><path class="cls-3" d="M735.93,1099.8c-5.19,6.75-5.55,7.81-1.51,13.6l24.19,36c4.32,6,6.36,8,8.61,9.75,1.68,1.3,6.18-1.06,13.64-7.85l7.89-7.35c3.27-.18,10.17,4.23,9.41,8.13-8.13,9.4-15.91,19.53-25.27,31.12-7.35,9.56-11.48,16.68-21.43,29.61-4.06,1.8-9.75-3-10.49-6.72l5-8.24c4.35-7.4,6.43-14.75-.87-28-7.57-13.43-17-29.15-31.36-52.31l-48.94-78.34c-12.74-20.09-18.91-32.44-27.71-37.87,7.29-15.87,1.51-36.87,1.94-37.43,2.81-3.66,5.51-4.26,10.6-2.14,9.88,4,22.88,8.64,48.25,17l139.63,46.52c21.41,7.07,29.83,9.51,39.51.4l9.91-9.39c2.7-.6,9.88,4,9.62,7.86-10.94,13.06-22.89,28-34.14,42.65-10.81,14.06-19,25.24-28.34,38.61-4.07,1.79-10.41-2.18-10.28-7l5.51-10.08c3.85-7.33,2.75-10,1.06-11.26-2-1.52-10.23-4.74-23.23-9.36l-30-11c-5.58-2-7.87-.23-15.44,9.61Zm9.75-43.52c5-6.46,5.21-8.52-3.83-11.89l-28.4-10.2c-15.12-5.36-34.19-12-42-14,4.73,7.23,15.59,24.52,25.28,38.69l15.69,23.24c5.64,8.37,7.57,7.62,13,.59Z"/><path class="cls-3" d="M1004.69,925.94c-23.92,22.2-45,29.21-53.36,31.16-10.25-1.14-31-16.71-47.42-34.39-1.32-5.07,4.41-10.88,9.15-10,20.89,12.07,60.51,19.81,82.6-.71,19.24-17.86,15.76-39.32,3.69-52.32-19.55-21.05-50.89-15.18-73.73-8.5-27.4,8-62.42,11.5-86.31-14.23-27.54-29.13-23.49-70.65,14.2-105.65A144.07,144.07,0,0,1,887,708a84,84,0,0,0,10.77-6.13c7.39,3.79,23,15.41,39.19,32.83,1.6,4.32-4.66,10.62-9.41,10.19-16.73-9.15-45.53-17.75-64.24-.37-17.16,15.93-16.13,35.8-4.06,48.8,11.1,12,31.89,13,51.17,7.66l25.6-6.83c24.08-6.39,58.61-10.38,85.16,18.21C1050.87,844.32,1043.93,889.49,1004.69,925.94Z"/><path class="cls-3" d="M1159.87,652.78c-12.3,7.75-12.41,8.24-7.12,16.64L1180,712.63c17.59,27.91,21.09,29.48,35.73,22.77l10.36-4.86c3.53.29,7.88,7.19,6.62,10.51-17.49,10.18-32.68,19.33-46.18,27.84-14.41,9.08-29.22,18.84-44.15,29.09-3.53-.29-7.88-7.19-6.62-10.51l6.64-5.44c12.67-10.5,12.28-14.44-5.31-42.35l-70.36-111.63c-17.59-27.91-21-30-35.92-23.06l-7.77,3.64c-3.53-.29-7.88-7.19-6.62-10.51,15.08-8.67,30.88-18.2,45.28-27.28,13.5-8.51,28.32-18.27,41.14-27.19,3.54.29,7.89,7.19,6.62,10.51l-5.73,4.87C1092,569,1092,573.1,1109.63,601l21.94,34.81c5.49,8.71,6,8.82,18.28,1.06l62.41-39.34c12.61-7.94,12.42-8.24,6.93-16.94l-21.94-34.81c-17.59-27.91-20.6-29.37-35.73-22.77l-8.85,3.91c-3.54-.29-7.89-7.19-6.62-10.51,16.88-9.8,31.77-18.77,46.18-27.84,14.7-9.27,28.31-18.27,41.74-27.57,3.53.29,7.88,7.19,6.62,10.5l-5.44,4.69c-12.48,10.8-12.57,14.63,5,42.54l70.35,111.63c17.59,27.91,20.72,28.87,36,22.57l8-3.33c3.54.28,7.89,7.18,6.62,10.5-15.38,8.86-30.28,17.82-44.08,26.52q-22.5,14.19-43.54,28.7c-3.54-.28-7.89-7.18-6.62-10.5l6-5.06c12.67-10.5,12.28-14.45-5.31-42.35l-27.23-43.22c-5.3-8.4-5.49-8.7-18.09-.75Z"/><path class="cls-3" d="M1506.69,540.9c12.65,30.85,15.56,32.34,31.74,28.78l9.86-2.13c3.43.89,6.2,8.58,4.38,11.62-18,6.61-34.2,12.88-49.63,19.2-15.75,6.46-32,13.52-49.48,21.44-3.43-.89-6.53-8.44-4.71-11.48l8.52-5.41c14-8.82,15-11.92,2.39-42.77l-49.53-120.77c-12.65-30.85-15.56-32.34-31.73-28.78l-9.86,2.13c-3.43-.89-6.53-8.44-4.71-11.49,18-6.61,34.53-13,50.29-19.47,15.42-6.32,31.7-13.38,49.15-21.31,3.43.9,6.53,8.45,4.71,11.49l-8.52,5.41c-14,8.82-15,11.92-2.39,42.77Z"/><path class="cls-3" d="M1846.59,435.81c5.06,22.49,10,44.29,13.23,55.56-1.49,4.69-10.32,10.68-18.63,12.55-.34.08-15.73-15-36.51-31.41l-102.21-81c-25.6-20-40.29-32-47.69-35.81-1,3.85.37,9.74,3.25,22.54l15.11,67.13c6.31,28,13.53,53.68,19.44,62.16,4.75,6.57,13.25,7.2,22.56,6.56l10-.79c3.39,2.14,4.33,9.56,2.72,12.11-18.84,3.51-32.76,6.28-46.6,9.39-12.81,2.88-25.54,6.11-38.53,9.76-2.54-1.61-4.87-8.72-2.72-12.11l5.64-2.36c9-3.83,15.33-7.81,16.47-15.7,1.7-10.2-3.1-36.39-9.41-64.42L1633,362.08c-4.29-19-5.88-24.49-9-28.87-4.09-5.26-9.87-8.32-22.37-7.33l-10,.8c-3-2.22-4.57-10.61-1.34-12.42,16.42-3,33.8-6.52,48-9.71,11.76-2.65,21.72-5.25,28.83-7.58,7,14.79,35.38,36,74.86,66l36.77,27.72c19.28,14.57,32,24.42,41.79,30.59.61-3.77-.72-9.65-2.12-15.88l-10.75-47.76c-6.3-28-13.53-53.67-19.44-62.16-4.75-6.56-12.9-7.27-22.56-6.55l-9.65.71c-3.39-2.14-4.34-9.56-2.73-12.11,18.84-3.51,32.42-6.2,46.61-9.4,12.8-2.88,25.18-6,38.52-9.75,2.54,1.61,4.87,8.72,2.73,12.11l-6,2.44c-8.69,3.41-14.64,7.66-16.12,15.62-1.7,10.2,2.75,36.47,9.06,64.5Z"/><path class="cls-3" d="M2201.12,434.57c.26,14.9,1.09,22,7.86,23.28,1.44,1.39,1.19,7.43-.92,8.53-6,1.17-15.21,2.39-24.73,5.75-12.35,4.12-42.77,9.26-62.63,9.6-24.12.42-44.73-1.71-70.09-11.2-41.78-15.95-70.84-54.83-71.72-105.9-.77-44.33,18.42-83.69,60.56-108.19,23.89-13.54,52.52-19.71,82.67-20.23,39.36-.68,59,7.49,70.37,7.29,1.25,10.62,2,35.44,6,57-1.35,3.92-10.92,4.44-13.46.94-11.93-33.14-34.56-49.42-67.54-48.85-56.4,1-82.89,48.26-81.92,104.3.88,50.72,18.78,80.56,42.1,95.77,17.22,11.05,35.7,12.86,48.82,12.63,20.22-.35,24.41-4.32,24-27.38l-.39-22.34c-.33-19.15-2.5-21.24-19.56-23.43l-15.64-1.86c-3.94-2.06-4.08-10.21-.22-12.41,25.19.27,42.58.33,60,0,17-.29,34.39-1,46.44-1.87,2.87,2.08,3,10.24.21,12.42l-8.13,1.56c-10.61,2-12.67,5.54-12.34,24.69Z"/><path class="cls-3" d="M2412.37,290.63c1.41-8.39,1.71-10.14-6.68-11.56L2384,275.41c-25.53-4.31-35.24,8.44-50,32.2-4.56,1.39-11.08-.43-12.41-5.34,11.42-22.89,16.83-44.28,21.58-57.51a8.53,8.53,0,0,1,5.19-.92,8.14,8.14,0,0,1,4.66,2.23c.75,6.24,1.56,7.82,28.14,12.3l130.11,22c23.09,3.9,28.39,4.43,32.78-2.38a8.85,8.85,0,0,1,4.72-.28,7.54,7.54,0,0,1,4.84,3.33c-5.51,11.3-12.74,39.22-15.41,59.27-2.28,2.86-11.84,2-13.12-1.13-2.16-23.39-4.28-40.66-30.52-45.09l-21-3.54c-8.39-1.42-9.62-.55-11.16,8.55l-26.05,154.24c-5.49,32.53-3.86,35.68,11.52,40.44l13.7,4.11c2.09,2.51.73,10.56-2.07,12.24-22.62-4.54-40-7.84-55.78-10.5-16.79-2.83-35-5.55-59.64-9-2.45-2.57-1.09-10.61,2.07-12.24l16,.91c16,.91,18.67-1.89,24.16-34.41Z"/><path class="cls-3" d="M2876.36,520.62c-27.81,72.15-92.85,96.88-164,69.45-66.52-25.65-98-88-71.33-157.14,25.26-65.53,93.77-97.28,162.94-70.61C2872.8,388.85,2902.26,453.44,2876.36,520.62Zm-80.92-144.1c-40.71-15.7-77.22,13.94-98.53,69.22-15.57,40.37-26.35,110.73,27.6,131.53,43.36,16.71,76.57-19.15,97.24-72.76C2843.57,447.91,2836.48,392.34,2795.44,376.52Z"/><path class="cls-3" d="M3138.86,746.23c-12.61,19.3-24.83,38-30.64,48.19-4.41,2.21-14.86,0-22-4.61-.3-.2-.2-21.74-2.91-48.09L3070.23,612c-3.45-32.34-5.1-51.21-7.54-59.16-3.42,2-6.72,7-13.9,18l-37.64,57.6c-15.71,24.06-29.08,47.1-31.05,57.26-1.4,8,4.07,14.52,11,20.75l7.54,6.62c.83,3.93-3.84,9.78-6.79,10.39-15.64-11.07-27.33-19.12-39.21-26.88-11-7.18-22.17-14.06-33.84-20.84-.62-3,2.87-9.57,6.79-10.4l5.63,2.41c9,3.76,16.29,5.56,22.74.87,8.5-5.88,24-27.57,39.66-51.62l49.28-75.43c10.67-16.33,13.48-21.28,14.41-26.6.93-6.6-.9-12.88-10.33-21.15l-7.54-6.62c-.52-3.74,4.43-10.67,8-9.62,13.57,9.71,28.22,19.71,40.4,27.66,10.1,6.6,18.9,11.93,25.53,15.41-5.76,15.3-1.21,50.48,4.76,99.72l5.73,45.69c3,24,4.8,40,7.17,51.29,3.13-2.19,6.43-7.24,9.92-12.58l26.77-41c15.72-24,29.08-47.1,31.05-57.25,1.4-8-3.77-14.33-11-20.76l-7.24-6.43c-.83-3.92,3.84-9.77,6.79-10.39,15.64,11.07,27,18.93,39.2,26.88,11,7.18,21.88,13.87,33.85,20.85.62,2.94-2.87,9.57-6.79,10.39l-5.93-2.6c-8.5-3.86-15.69-5.17-22.44-.68-8.5,5.89-24.24,27.38-40,51.44Z"/><path class="cls-3" d="M3411.9,828c25-22.53,29.59-27.57,20-40.89l-4-5.48c-1-3.82,6.6-10.7,9.71-7.78,21.24,21,40.8,40.59,66,68.54,19.46,21.62,36.8,45.14,46.58,69.27,18.68,45.69,4.65,92.67-28.31,122.32-35.33,31.8-79,40.54-121.31,23.74-25.1-9.86-48-28.4-72.42-55.56-11.15-12.4-21.43-27-30-36.5-11.38-12.65-23.75-25.86-37.8-40.42-.31-3.53,6-9.23,9.23-8.3l8.67,7c12.53,10.2,16.06,9.88,40.32-11.94ZM3362.24,941c-14.5,13-23.52,22.11-24.79,31.84-1,9.49,3.51,19.28,12.05,28.77,41,45.62,95.65,24.64,131.51-7.63,47.46-42.7,53.14-93.14,10.2-140.86-6.41-7.12-12.24-11-15.77-10.63s-8.78,4.56-17,11.91Z"/><path class="cls-3" d="M3511.35,1191.92c14-9.05,31.66-5.25,40.32,8.16,9.24,14.3,3.68,31.83-9.14,40.1-13.7,8.86-30.48,5.76-39.72-8.54C3495.11,1219.72,3496.75,1201.35,3511.35,1191.92Z"/><path class="cls-3" d="M3877.79,1445.49c-5.81,2.63-31.24,15.28-48.67,26.66-4.46.45-9.7-7.69-7.81-11.27,26.12-22.3,32.94-50.29,18.77-81.65-16.2-35.88-64.29-60.48-128.62-31.42s-82.12,81.85-64.6,120.65c17.67,39.11,54,44.51,79.89,43.31,3.75,1.42,6.29,9.61,3.29,13.3-24.95,8.55-46.83,11.81-56.3,10.64-12.74-15.26-30.22-35-41.6-60.22-14.31-31.67-21.48-67.36-14.71-98,7.26-31.3,26.06-61.2,66.15-79.31,39.43-17.81,74.83-13.56,103.33.42,29.44,14.34,54,42.93,69.21,76.55C3871,1408.07,3874.06,1435.5,3877.79,1445.49Z"/><path class="cls-3" d="M3722.69,1639.1c16-4.51,31.79,4.32,36.12,19.69,4.61,16.39-5.88,31.5-20.56,35.63-15.71,4.42-30.83-3.49-35.44-19.88C3699,1660.89,3706,1643.81,3722.69,1639.1Z"/><circle class="cls-4" cx="2125.86" cy="2125.86" r="1462.56"/><path class="cls-5" d="M525.29,2552.52c6.28-1.57,7.59-1.89,6-8.17l-4-16.23c-4.77-19.11-16.61-22-37.68-25.07-2.35-2.75-3.07-7.85-.06-10.27,19.43,1,36-1.76,46.65-2.47a6.38,6.38,0,0,1,2.22,3.34,6.18,6.18,0,0,1-.13,3.92c-4.12,2.42-5,3.47,0,23.36l24.3,97.36c4.31,17.27,5.55,21.13,11.64,22.11a6.8,6.8,0,0,1,1.63,3.21A5.73,5.73,0,0,1,575,2648c-9.55-.39-31.21,3.07-46,7.31-2.69-.72-5-7.65-3.21-9.48,15.64-8.63,27-15.37,22.13-35l-3.92-15.7c-1.57-6.28-2.55-6.87-9.35-5.17l-115.42,28.81c-24.34,6.07-26,8.16-24.67,20.33l1.3,10.8c-1.11,2.22-7.13,3.72-9.16,2.28C383,2635,380,2621.88,377,2610.1c-3.13-12.56-6.79-26.1-11.89-44.29,1.05-2.49,7.07-4,9.16-2.29l4.25,11.45c4.25,11.45,7,12.43,31.34,6.36Z"/><path class="cls-5" d="M532.41,2812.72c-4.3-10.18-4.66-10.33-11.61-7.38L485,2820.46c-23.11,9.77-24.72,12.21-21.48,24l2.37,8.37c-.65,2.62-6.37,5-8.7,3.68-5.49-14.38-10.49-26.9-15.22-38.09-5-11.92-10.54-24.24-16.4-36.7.66-2.62,6.37-5,8.7-3.68l3.27,5.65c6.32,10.8,9.33,11,32.44,1.22l92.42-39.07c23.11-9.77,25.07-12.07,21.73-24.12l-1.78-6.28c.65-2.62,6.37-5,8.7-3.68,4.65,12.39,9.86,25.41,14.9,37.34,4.73,11.18,10.23,23.5,15.35,34.22-.65,2.62-6.36,5-8.7,3.67l-3-4.9c-6-10.05-9.12-10.49-32.23-.72l-28.82,12.18c-7.2,3-7.35,3.4-3,13.59l21.85,51.68c4.41,10.43,4.66,10.33,11.86,7.28l28.83-12.18c23.1-9.77,24.57-11.86,21.47-24l-1.84-7.13c.65-2.62,6.37-5,8.69-3.67,5.29,13.87,10.18,26.15,15.23,38.08,5.14,12.17,10.22,23.5,15.55,34.71-.65,2.62-6.36,5-8.69,3.68l-2.85-4.65c-6.57-10.7-9.44-11.24-32.54-1.47l-92.43,39.07c-23.11,9.77-24.22,12-21.37,24.27l1.53,6.38c-.65,2.62-6.37,5-8.7,3.68-4.76-12.63-9.65-24.91-14.49-36.34q-7.87-18.65-16.18-36.22c.65-2.61,6.36-5,8.69-3.67l3.06,5.15c6.32,10.8,9.33,11,32.44,1.22l35.78-15.12c6.95-2.95,7.2-3,2.79-13.49Z"/><path class="cls-5" d="M674.62,3046.61c-6.43,3.95-6.75,4.46-2.94,10.67l9.73,15.86c7.34,12,10.64,13.72,23.09,9.25L711,3080c2.83.48,6.36,6.23,5,8.64-7.64,4.06-16.06,8.91-24.8,14.27s-16.87,10.68-23.94,15.65c-2.78.12-6.53-5.48-5.45-8.36l5-4.68c9.62-9.07,9.77-13,2.43-24.91l-9.74-15.87c-3.81-6.2-4.18-6.29-11.07-2.06l-27.36,16.79c-10.58,6.5-17.37,11.93-19.58,17.09-2.31,5.53-1.46,11,8.84,27.81,12.27,20,17.76,27.39,51.5,24.09,3.66.28,6.27,6.6,4.07,9.21-12.52,6.42-34.52,12.33-42.71,12.92-7-12.46-20.33-34.68-31.9-53.53l-18.35-29.88c-6.77-11-13.92-22.16-25-39.12.25-2.69,5.77-6.07,8-4.94l8.24,9.82c8,9.36,10.18,9.89,31.33-3.09l85.75-52.64c20.92-12.84,21.45-15.07,17.17-26.68l-2.38-6.45c.11-2.92,5.54-5.94,8.33-4.48,6.17,11.08,12.86,22.49,19.63,33.52L754,3041.87c9,14.71,17.3,27.68,19.6,30.38-3.54,2.49-19.1,14.26-33.8,24.86-3.09.64-6.8-4.37-6.14-7.94,6.49-7.47,11.41-14.92,12.8-19.88,1.68-7.05.21-15.64-6.7-26.91L728.48,3024c-4.66-7.58-5.12-7.3-13.63-2.08Z"/><path class="cls-5" d="M874.86,3344.49c-45,37.81-97.41,30.38-134.71-14-34.87-41.52-32.93-94.57,10.24-130.83,40.9-34.35,98.18-30.32,134.43,12.85C920.91,3255.45,916.8,3309.27,874.86,3344.49Zm-.93-125.68c-21.33-25.41-56.54-19.09-91,9.88-25.2,21.16-58.23,64-29.95,97.72,22.72,27.06,58,15.38,91.47-12.72C879.74,3284,895.44,3244.42,873.93,3218.81Z"/><path class="cls-5" d="M953,3480.09c-8.41,9.49-13.32,16.66-13.56,22.22-.42,5.76,1.78,10.59,16.52,23.65,18.37,16.29,24.56,20.69,57.22,7.83,3.4-.59,7.33,4.34,6.6,8-10.32,9.6-30,22.06-37.67,25-10.34-9.89-29.54-27.27-46.09-41.94l-27-24c-9.29-8.23-19.56-17-32.43-27.66-.74-2.82,3-7.82,5.66-7.6l8.56,5.79c10.16,6.84,12.8,6.3,29.44-12.48l66.56-75.09c16.64-18.77,17-21.66,9-30.92l-5.14-6c-.94-3,3.17-7.64,6.67-6.7q15.21,14.55,29.74,27.44c9.69,8.59,20,17.33,30.41,25.87.54,2.65-3.57,7.29-6.26,7.07l-6-3.85c-10.34-6.63-13-6.09-29.62,12.68Z"/><path class="cls-5" d="M1271.3,3658.43c-32.13,49.25-84.42,57.34-133,25.65-45.41-29.62-59-81-28.15-128.18,29.18-44.74,85.17-57.49,132.39-26.69C1289.54,3559.86,1301.21,3612.56,1271.3,3658.43Zm-37.35-120c-27.79-18.13-59.64-1.87-84.26,35.86-18,27.57-37.14,78.19-.32,102.21,29.6,19.3,60-2.1,83.86-38.7C1258.43,3599.15,1262,3556.69,1234,3538.42Z"/><path class="cls-5" d="M1480.48,3823.51c-4.6,10.35-6.29,15.5-2,18.57.55,1.42-1.56,5.5-3.36,5.59-4.52-1.12-11.26-3.23-18.9-4-9.84-1.12-32.46-7.33-46.27-13.46-16.77-7.44-30.3-15.51-44.74-30.19-23.7-24.39-31.28-60.51-15.52-96,13.68-30.82,39.52-51.81,76.44-55.2,20.82-1.68,42.54,3.24,63.49,12.54,27.37,12.15,38.31,24.08,46.19,27.59-2.54,7.72-10,25.09-14.16,41.22-2.19,2.28-9-.43-9.59-3.66,2.4-26.68-8-45.16-30.92-55.34-39.2-17.4-72.63,6.72-89.92,45.67-15.65,35.26-12.87,61.58-1.66,79.54,8.33,13.14,20.49,20.31,29.61,24.36,14.06,6.24,18.22,4.84,25.33-11.18l6.9-15.54c5.91-13.31,5.09-15.45-6-22.43l-10.19-6.29c-2.06-2.68.46-8.35,3.83-8.63,17.28,8.26,29.25,13.87,41.33,19.23,11.84,5.26,24,10.37,32.63,13.6,1.32,2.36-1.2,8-3.83,8.63l-6.11-1.53c-7.94-2.05-10.51-.24-16.43,13.07Z"/><path class="cls-5" d="M1638.81,3865.83c-7.26,24.29-6.25,26.57,5,32.19l6.85,3.45c1.61,2.17-.43,8-3,9-13.8-4.69-26.39-8.73-38.53-12.36-12.41-3.7-25.41-7.3-39.52-10.95-1.6-2.17.17-8.12,2.7-9.05l7.62.87c12.51,1.48,14.6.14,21.86-24.16l28.41-95.12c7.25-24.29,6.24-26.57-5-32.18l-6.85-3.46c-1.6-2.17.17-8.11,2.7-9,13.8,4.68,26.65,8.8,39.06,12.5,12.14,3.63,25.14,7.23,39.25,10.89,1.61,2.16-.17,8.11-2.7,9l-7.62-.87c-12.51-1.48-14.6-.13-21.85,24.16Z"/><path class="cls-5" d="M1933.62,3788.68c-.8,4.79-3.58,26.2-3.78,42-1.6,3-9,2.87-10.42.16-3-26-17.81-42.11-43.62-46.45-29.52-5-65.43,15-74.32,67.93s16.91,86.54,48.83,91.91c32.19,5.41,51-15.23,61.19-32.11,2.49-1.77,8.74.1,9.8,3.56-5.17,19.37-12.38,34.57-17.13,40.06-15,1.58-34.9,4.26-55.65.77-26.07-4.38-51.64-15-68.16-32.24-16.69-17.85-27.61-42.39-22.07-75.38,5.45-32.45,23.13-53,44-65.08,21.53-12.53,50-15.95,77.67-11.3C1907.12,3777.11,1925.73,3786.81,1933.62,3788.68Z"/><path class="cls-5" d="M2054.07,3911c-6.47-.15-7.29.1-9,5.18l-11.27,31c-1.75,5.35-2.07,7.5-2.12,9.66,0,1.62,3.43,3.32,10.94,4.85l8.06,1.55c1.57,1.92,2,8.14-.77,9.42-9.42-.77-19.13-1-30.45-1.54-9.17-.23-15.39.43-27.79.13-2.93-1.69-2.53-7.34-.59-9.45l7.3-.64c6.5-.65,11.94-2.68,16.78-13.08,4.85-10.68,10.28-23.5,18-42.74l26.13-65.21c6.61-16.84,11.43-26.16,10.81-34,13-2.66,23.31-15.63,23.85-15.62,3.5.09,5.09,1.48,6.07,5.55,2,7.87,5,17.93,11.24,37.23l34.12,106.6c5.28,16.32,7.55,22.58,17.49,24.44l10.21,1.86c1.59,1.39,2,7.88-.5,9.44-12.93-.86-27.48-1.48-41.51-1.82-13.48-.32-24-.31-36.42-.07-2.93-1.69-3.33-7.36-.31-9.45l8.66-1.14c6.23-.93,7.35-2.79,7.39-4.41.05-1.89-1.68-8.4-4.68-18.46L2099,3917c-1.24-4.34-3.39-4.93-12.83-5.16Zm31.09-13.55c6.2.15,7.57-.62,5.58-7.69l-6.48-22c-3.5-11.69-8-26.37-10.29-32.09-2.31,6.15-8,20.58-12.4,32.89l-7.23,20.06c-2.6,7.23-1.27,8.07,5.47,8.23Z"/><path class="cls-5" d="M2309.55,3919c1.38,12.61,3.39,21.07,7.34,25,4,4.18,9.05,5.79,28.62,3.66,24.4-2.67,31.82-4.29,44.24-37.13,1.85-2.91,8.14-2.51,10.37.5.18,14.09-3.82,37.05-6.79,44.7-14.27,1-40,3.56-62,6l-35.94,3.93c-12.33,1.34-25.71,3.08-42.27,5.43-2.59-1.35-3.8-7.45-1.83-9.3l10-2.45c11.89-2.93,13.26-5.25,10.54-30.19l-10.9-99.75c-2.72-24.93-4.6-27.17-16.84-27.46l-7.89-.22c-2.86-1.32-3.53-7.49-.49-9.45q21-1.47,40.31-3.59c12.87-1.4,26.25-3.14,39.6-5.14,2.32,1.38,3,7.54,1,9.39l-6.85,1.83c-11.87,3.2-13.24,5.52-10.51,30.45Z"/><path class="cls-5" d="M2673.8,3893c-23.62,7.62-40.4,5.66-46.79,4.32-6.7-4.08-16-21.49-21.62-39,.72-3.91,6.54-6.07,9.5-3.91,10.52,15,35.34,33.1,57.16,26.07,19-6.13,23.5-22,19.36-34.87-6.7-20.8-30.19-26.83-48.07-29.56-21.47-3.29-46.72-12.15-54.91-37.57-9.61-28.92,6.52-56.23,43.75-68.24a109.46,109.46,0,0,1,30.59-5.33,64,64,0,0,0,9.39-.76c3.88,5,10.91,18,16.46,35.23-.29,3.49-6.63,5.82-9.77,4-8.58-11.68-25.66-26.86-44.15-20.9-16.94,5.46-22.62,19.48-18.49,32.32,3.81,11.81,17.81,19.19,32.8,21.73l19.84,3.52c18.65,3.34,43.74,11.69,52.84,39.93C2731.87,3851.58,2712.57,3880.48,2673.8,3893Z"/><path class="cls-5" d="M2835.53,3710.1c3.21,6.84,3.69,7.21,10.28,4.12l16.85-7.91c12.69-6,14.82-9,11.76-21.91l-1.64-6.68c.79-2.76,6.9-5.62,9.15-4,3.18,8,7.06,17,11.42,26.23s8.72,18,12.88,25.54c-.19,2.77-6.18,5.88-8.92,4.48l-4.09-5.53c-7.94-10.57-11.79-11.15-24.49-5.19l-16.85,7.91c-6.59,3.09-6.72,3.45-3.28,10.78l13.64,29.06c5.27,11.23,9.92,18.58,14.8,21.36,5.23,2.91,10.79,2.68,28.62-5.69,21.24-10,29.2-14.6,29.68-48.5.69-3.6,7.25-5.49,9.6-3,5,13.16,8.41,35.69,8.09,43.89-13.17,5.58-36.73,16.34-56.75,25.74l-31.75,14.9c-11.72,5.51-23.57,11.37-41.65,20.45-2.64-.55-5.4-6.41-4-8.54l10.67-7.1c10.19-6.87,11-9,.42-31.49l-42.76-91.08c-10.43-22.22-12.58-23-24.6-20l-6.68,1.65c-2.88-.43-5.28-6.16-3.52-8.78,11.7-4.9,23.78-10.27,35.5-15.77l51.77-24.3c15.63-7.34,29.43-14.11,32.38-16.09,2.08,3.79,12,20.57,20.94,36.36.28,3.14-5.1,6.27-8.58,5.21-6.69-7.28-13.55-13-18.33-14.93-6.82-2.46-15.52-1.95-27.48,3.66l-19.54,9.17c-8.06,3.79-7.83,4.27-3.59,13.31Z"/><path class="cls-5" d="M2949.53,3585.81c-3-.57-6.64-5.93-4.64-8.26,7.88-4.71,17.63-11,28.56-18.45,7.36-5,13.83-9.4,21.4-15.54,9.41,13.83,26.47,22.13,50.54,36.42l36.11,21.44c5,3.1,22.63,11.69,29.55,15.14-.74-7.33-1.88-16.67-4.81-33.92l-5.31-32.28c-4.92-30.25-7.38-45.87-15.52-68.38a249.49,249.49,0,0,0,22.54-14.35c7.36-5,17.47-12.21,25.19-18.12,3.37-.33,6.25,3.91,6,7.35l-5.71,5.51c-8.08,7.79-10.72,13.5-2.68,25.32,31.25,45.95,48.08,69.73,68.53,96.93,7.43,10,12,14.7,21.42,9.9l7.74-4c3,.57,6.49,5.7,4.86,8.11-10.56,6.53-20.3,12.83-31.23,20.26-10,6.83-22.16,15.4-32.56,23.13-3.43.7-7.15-4.28-6-7.36l6.09-5.44c9.35-8.32,7.53-11-1.73-24.6L3128,3547l-17.29-25.43-.45.31c7.77,46.91,15.26,96.3,26.18,144a8.68,8.68,0,0,1-3.4,4.6c-2,1.37-4.77,2.59-6.71,2.61-27.51-21.75-92.57-58.4-124.78-78.9l-.45.3c9,15.1,15.42,25.07,23.09,36.82,9.64,14.65,24.58,37.11,33.68,50.49,7.59,11.15,11.05,13.37,20.88,8.64l9.61-4.58c2.85.35,5.89,5.78,4.87,8.11-8.56,5.16-18.3,11.47-26.78,17.23-7.14,4.85-15.46,10.84-24.08,17.36-3.5,1.08-7.45-4.72-6.2-7.2l3.56-3.4c10-9.75,10.44-12,2.37-26.74-6.32-11.68-18.85-31.54-31.92-53.65-9.27-15.55-21.11-33.92-29.31-46-8.64-12.72-15.83-12.72-25.81-8.22Z"/><path class="cls-5" d="M3324.92,3463.59c17,18.78,19.51,19.09,30.15,12.35l6.5-4.08c2.69-.25,6.66,4.52,6.14,7.17-11.14,9.39-21.11,18.07-30.5,26.59-9.59,8.71-19.39,18-29.82,28.16-2.68.25-6.85-4.34-6.34-7l4.68-6.08c7.74-9.93,7.67-12.42-9.37-31.19L3229.65,3416c-17.05-18.77-19.51-19.08-30.15-12.34l-6.5,4.08c-2.69.25-6.85-4.35-6.35-7,11.15-9.39,21.32-18.26,30.91-27,9.39-8.52,19.19-17.78,29.62-28,2.68-.25,6.85,4.35,6.34,7l-4.69,6.08c-7.73,9.94-7.66,12.42,9.38,31.2Z"/><path class="cls-5" d="M3511,3253.94c13.34,11.39,26.26,22.43,33.38,27.8,1.23,3.54-1.42,11.21-5.62,16.13-.18.2-16.42-2-36.55-2.48l-99.13-2.74c-24.72-.54-39.12-1.13-45.35-.07,1.18,2.78,4.66,5.76,12.25,12.24l39.79,34c16.61,14.19,32.7,26.51,40.16,29,5.88,1.83,11.35-1.66,16.72-6.29l5.73-5c3-.24,7,3.85,7.18,6.13-9.87,10.72-17.09,18.75-24.09,27-6.49,7.58-12.76,15.35-19,23.49-2.28.18-6.94-3.09-7.18-6.13l2.36-4c3.71-6.42,5.78-11.75,2.87-17.07-3.61-7-18.46-20.74-35.08-34.93l-52.09-44.5c-11.28-9.64-14.74-12.23-18.66-13.46-4.89-1.33-9.8-.56-17,5.74l-5.73,5c-2.86,0-7.61-4.38-6.47-6.95,8.64-9.29,17.61-19.37,24.79-27.78,6-7,10.83-13.09,14.1-17.75,11,5.83,38,5.81,75.67,6.1l35,.12c18.38.08,30.63.27,39.38-.42-1.35-2.57-4.83-5.55-8.53-8.7l-28.3-24.18c-16.61-14.19-32.7-26.51-40.16-29-5.88-1.83-11.17,1.46-16.72,6.29l-5.56,4.84c-3,.24-7-3.85-7.17-6.13,9.87-10.72,16.91-18.55,24.09-26.95,6.48-7.59,12.58-15.15,19-23.51,2.28-.17,6.94,3.09,7.17,6.14l-2.53,4.21c-3.74,6-5.43,11.34-2.7,16.86,3.61,7,18.29,21,34.91,35.14Z"/><path class="cls-5" d="M3587.78,3118.26c-3.43,5.49-3.64,6.32-.15,10.41l20.93,25.53c3.71,4.23,5.4,5.61,7.23,6.75,1.37.86,4.6-1.25,9.75-6.94l5.44-6.14c2.46-.37,8,2.47,7.72,5.47-5.47,7.71-10.63,15.94-16.87,25.4-4.87,7.77-7.48,13.46-14.06,24-2.95,1.65-7.61-1.58-8.43-4.33l3.18-6.6c2.75-5.92,3.78-11.63-2.7-21.11-6.71-9.61-15-20.83-27.55-37.31l-42.75-55.74c-11.1-14.28-16.67-23.18-23.73-26.65,4.36-12.55-1.54-28-1.26-28.48,1.87-3,3.87-3.63,7.87-2.39,7.78,2.32,17.95,4.88,37.76,9.33l109.09,25c16.72,3.79,23.27,5,29.94-2.57l6.81-7.83c2-.66,7.77,2.32,7.86,5.24-7.34,10.68-15.3,22.89-22.74,34.77-7.16,11.43-12.52,20.49-18.65,31.29-2.95,1.66-8-.89-8.29-4.55l3.44-8c2.38-5.83,1.35-7.75,0-8.61-1.6-1-8.09-2.84-18.26-5.39l-23.53-6.15c-4.37-1.14-6,.4-11,8.4Zm4.21-33.65c3.3-5.26,3.33-6.83-3.76-8.72l-22.24-5.66c-11.84-3-26.76-6.58-32.85-7.52,4.11,5.12,13.59,17.42,22,27.44l13.57,16.45c4.88,5.93,6.28,5.21,9.86-.5Z"/><path class="cls-5" d="M3627.57,2900.87c-24.65-10.95-27.58-11.66-33.66-2l-3.94,6.22c-2.33,1.92-8.49-.82-8.41-4.33,7-19,14.54-38.7,24.94-62.12,9.31-21,20.51-37.52,30.35-44.37,14.73-10.57,30.34-12.49,46.12-5.48,21.94,9.75,24.73,28.7,25.36,42.56.14,3,1.62,3.67,4.88,3.64,40.26-1.59,63.24-3.48,78.6-10.83a33,33,0,0,0,14.24-13.45c2.22-1.67,5.92,0,6.85,1.87,0,4.71-3,12.81-6.44,20.46-10.07,22.67-24.56,33.36-47.13,36.32-16.57,2.08-31.16,2.38-46.75,2.25-8,0-11.69,3.07-14.43,9.23-3.83,8.63-3.56,9.34,1.37,11.53l30.32,13.47c22.68,10.08,25.06,9.37,32-.85l4.19-6.11c2-1.18,7.92,1.45,8.63,3.83-6.3,12.85-11.58,24.08-16.84,35.91-5.48,12.33-10.05,23.28-15.25,36.32-2.36,1.32-8.27-1.31-8.63-3.83l1.72-7.21c3-12,1.89-14.21-20.79-24.29Zm46.31-19.86c8.63,3.83,9.7,3.42,16.16-11.12,3.94-8.88,4-15,1.42-21.8-2.33-6.06-8.13-14.24-22.68-20.71-22.18-9.85-42.28-3.14-50.83,16.09-4.49,10.1-4,10.92,7.86,16.18Z"/><path class="cls-5" d="M3824.66,2647.72c24.07,7.07,26.6,6.12,31.57-5.07l4.33-10c2.09-1.36,8,.39,9.06,2.66-5.46,16.67-9.44,29.28-13.09,41.7s-7.19,25.44-11.15,40.86c-2.17,1.62-8.12-.13-9.06-2.66l1.29-9.18c1.61-12.18.25-14.26-23.82-21.33l-12.94-3.8c-12.94-3.8-17.16-4.76-32.85-2.06L3695.28,2691c-12.13,2.06-17,3.17-21.17,11.77l-4.13,8.35c-2.76,1.72-8.89-.36-8.76-3.7,3.94-11.49,7-21,11.5-36.26,4.63-15.79,8.25-29.07,10.31-38,1.72-2,7.83-.79,9.21,2.14l-.51,9.41c-.33,5,.25,6.82.51,6.9,2.07.6,6.33.45,20.09-1.41l31.27-4c9.68-1.38,23.33-3.84,30.71-5-10.47-11.23-24.94-24.19-36.16-34.8-15.65-14.71-22.5-20.1-25.6-21-1.56-.46-4.33,3.23-7.19,9.13l-2.47,4.62c-1.91,1.69-8.45,0-9-2.92,3.56-10.2,6.56-19.44,9.29-28.76,2.89-9.83,5-17.93,6.67-25.59,1.95-2.8,8.16-1,9.37,1.62l-.69,7.11c-.59,4.89-.52,11.37,2.26,15.28,3.78,5.33,11.27,14.28,30.14,33.31l24.72,25c10.19,10.31,16.13,14,30.88,18.35Z"/><polyline class="cls-1" points="2202.64 1437.13 2267.43 3247.06 1988.69 3249.31 2053.48 1437.13 2125.81 1212.1"/><polyline class="cls-6" points="1988.73 3251.14 2053.52 1438.96 2130.35 1199.9 2053.52 1438.96 1988.73 3261.5 2267.47 3261.5 2202.68 1438.96 2125.85 1199.9"/><path class="cls-1" d="M1350.43,1775.76h27.47l262.19,590.79q19.47,44.44,38.7,60.67t50.19,16.23h6v19.48H1454.81v-20.47q42.95-1,58.18-10.24t15.23-32.71a91.94,91.94,0,0,0-1.5-17,61.39,61.39,0,0,0-4.49-14.48l-54.94-127.85H1187.63l-46.94,108.37q-9,21.48-12.74,33.46t-3.74,19.47q0,21,16.48,31t51.44,10h10v20.47H981.38v-19.48q33-.49,53.68-18.72t44.2-69.17Zm-148.32,426.48h250.7L1332,1922.08Z"/><path class="cls-1" d="M3098.34,2371q51.42,0,69.16-18.23t21.23-69.66h23.47v179.78H2934V2278.65q79.41-15.48,125.6-78.15t46.2-155.07q0-107.37-59.93-171.79t-161.31-64.42q-100.87,0-160.8,64.17t-59.93,172q0,92.9,45.69,155.07t126.1,78.15v184.28H2557.49V2283.15H2581q3,50.94,20.72,69.41t69.17,18.48H2796.7v-60.43q-120.87-22-187.28-91.39T2543,2045.43q0-122.85,93.89-197.76t247.7-74.91q154.32,0,247.95,74.91t93.64,197.76q0,103.87-66.42,173.54T2973,2310.61V2371Z"/><path class="cls-7" d="M2337.79,904.69h11.12v226.08H2345q-95.1,0-190.2,0c-2.16,0-3.72.88-5.59,1.82a52.67,52.67,0,0,1-12.8,4.71,57.83,57.83,0,0,1-29-1.32c-2.91-.91-5.49-2.87-8.31-4.16a10,10,0,0,0-4.08-1q-45-.07-89.95,0H1900.55v-226H1912V893c0-6.18.1-12.35,0-18.52a3.13,3.13,0,0,1,2.5-3.59c3.61-1.23,7.1-2.83,10.72-4,2.09-.68,2.85-1.65,2.82-3.93-.14-9.79-.06-19.58-.06-29.83,5.58-1.07,11.09-2.33,16.66-3.17,63.08-9.55,120.48,4.73,172.54,41.3a63.17,63.17,0,0,1,5.8,4.49c1.38,1.23,2.32,1.12,3.74,0a220,220,0,0,1,54.76-31.57c33-13.4,67.31-19.31,102.87-16.54,11.67.91,23.22,3.37,34.84,5,2.15.31,2.59,1.28,2.57,3.29-.11,9,0,18-.11,27.05,0,2.28.77,3.23,2.83,3.91,3.62,1.2,7.11,2.78,10.72,4,1.87.64,2.52,1.57,2.49,3.6-.12,9.31-.05,18.62,0,27.93C2337.57,903.06,2337.69,903.72,2337.79,904.69ZM2120.87,1118v-4.08q0-113.48.06-227a5.63,5.63,0,0,0-2.39-4.93,210,210,0,0,0-40.62-25.17c-44.2-20.94-90.37-27.19-138.54-18.32-2.7.5-3.86,1.32-3.85,4.42q.15,113.34.08,226.67c0,1.13.13,2.25.2,3.47C2004.15,1060.68,2065.34,1076.64,2120.87,1118Zm7.79,0c55.57-41.34,116.76-57.29,185.08-44.9.07-1.35.18-2.58.18-3.82q0-113,.09-226.08c0-3.17-1-4.14-3.91-4.67-30.56-5.6-61-5.34-91.28,1.77-32.18,7.57-61.53,21.17-87.63,41.6-1.61,1.27-2.6,2.51-2.6,4.82q.12,113.92.07,227.85Zm193.06-35.17c-27.24-6.45-54.29-8.21-81.52-4.21-26.29,3.86-68.78,18.62-76.59,26.34,56.4-17.17,111.52-12.16,166.2,8.37V1109q0-31.6.07-63.2.06-61.44.1-122.87c0-14.4,0-28.81-.05-43.21,0-1-.39-2.56-1.1-2.93a60.85,60.85,0,0,0-7.11-2.83Zm-393.9,0V874.06a43.49,43.49,0,0,1-4.45,1.54c-3.06.71-3.92,2.43-3.9,5.61.15,29.88.1,59.77.12,89.65q.06,68.92.13,137.86v4.59c54.83-20.58,109.92-25.53,166.14-8.74C2036.08,1077.43,1983.6,1069.69,1927.82,1082.78Z"/><path class="cls-8" d="M2120.87,1118c-55.53-41.33-116.72-57.29-185.06-44.9-.07-1.22-.2-2.34-.2-3.47q0-113.34-.08-226.67c0-3.1,1.15-3.92,3.85-4.42,48.17-8.87,94.34-2.62,138.54,18.32A210,210,0,0,1,2118.54,882a5.63,5.63,0,0,1,2.39,4.93q-.09,113.48-.06,227Z"/><path class="cls-8" d="M2128.66,1118v-3.43q0-113.93-.07-227.85c0-2.31,1-3.55,2.6-4.82,26.1-20.43,55.45-34,87.63-41.6,30.28-7.11,60.72-7.37,91.28-1.77,2.88.53,3.91,1.5,3.91,4.67q-.16,113-.09,226.08c0,1.24-.11,2.47-.18,3.82C2245.42,1060.68,2184.23,1076.63,2128.66,1118Z"/><path class="cls-8" d="M2321.72,1082.8V874a60.85,60.85,0,0,1,7.11,2.83c.71.37,1.1,1.92,1.1,2.93.07,14.4.06,28.81.05,43.21q0,61.44-.1,122.87,0,31.61-.07,63.2v4.27c-54.68-20.53-109.8-25.54-166.2-8.37,7.81-7.72,50.3-22.48,76.59-26.34C2267.43,1074.59,2294.48,1076.35,2321.72,1082.8Z"/><path class="cls-8" d="M1927.82,1082.78c55.78-13.09,108.26-5.35,158,21.79-56.22-16.79-111.31-11.84-166.14,8.74v-4.59q-.06-68.92-.13-137.86c0-29.88,0-59.77-.12-89.65,0-3.18.84-4.9,3.9-5.61a43.49,43.49,0,0,0,4.45-1.54Z"/><path class="cls-1" d="M1186.26,3148.71c-13.15-12.52-17.86-23.89-19.28-28.41.19-5.64,7.84-17.39,16.83-26.83,2.72-.85,6.13,2.15,5.83,4.76-5.73,11.74-8.31,33.62,3.84,45.19,10.58,10.08,22.18,7.63,28.78.7,10.7-11.24,6.18-28.24,1.57-40.57-5.54-14.8-8.91-33.87,4.17-47.61,14.78-15.8,37.67-14.64,58.39,5.1a82.14,82.14,0,0,1,14.18,17.74,48.29,48.29,0,0,0,3.81,5.73c-1.76,4.14-7.47,13-16.32,22.29-2.3,1-6-2.28-6-4.89,4.31-9.39,7.8-25.37-2.49-35.17-9.43-9-20.26-7.93-26.86-1-6.08,6.38-5.77,17.79-2,28.2l4.81,13.84c4.5,13,8.13,31.82-6.4,47.07C1232.85,3171.93,1207.85,3169.27,1186.26,3148.71Z"/><path class="cls-1" d="M1316.1,3129.9c10.88-14.11,10.64-15.74,4.66-22.53l-3.33-3.77c-.55-1.87,1.87-5.33,4.29-4.91,7.27,6.09,15,12.26,22.48,18s15.44,11.65,23.18,17.13c.55,1.87-2,5.21-4,5.16l-4.22-2.29c-8-4.21-9.84-3.71-20.72,10.4l-27,35c-13.68,17.75-26.73,38.89-3,57.21,20,15.42,39.21,3.13,55.23-17.66l14.15-18.36c9.47-12.28,17.73-24.3,19.05-29.57,1-4.27-1.69-7.83-5.32-11.84l-3.64-4c-.32-2.18,2.33-5,4-5.16,8.21,6.81,14.19,11.66,20.6,16.6,5.79,4.46,11.69,8.77,17.87,13,.23,1.63-1.79,4.91-4,5.16l-3.28-1.56c-4.77-2.23-8.44-3.6-12.3-1.5-4.76,2.62-14.27,13.66-23.74,25.95l-13.1,17c-11,14.26-22.46,26.22-38.19,28.85-12.37,1.83-26.71-3.18-39.37-12.94-11.89-9.15-21.12-19.17-24.42-32.35-3.1-12.79,2.11-26.67,14.86-43.21Z"/><path class="cls-1" d="M1433.7,3193.64c-.61-2.11,1.68-6.1,3.85-5.52,5.63,3.67,12.9,8.07,21.29,12.88,5.65,3.25,10.61,6.1,17.06,9.14-5.91,10.3-5.74,23.87-7.17,43.81l-2.14,29.91c-.37,4.21-.21,18.21-.2,23.74,4.52-2.71,10.21-6.29,20.46-13.43l19.22-13.26c18-12.4,27.37-18.75,39.34-30.87a188.75,188.75,0,0,0,16.66,10.23c5.65,3.24,13.62,7.59,20,10.8,1.31,2.08-.5,5.24-2.83,6.11l-5.44-2c-7.69-2.86-12.25-2.84-17.31,6-19.64,34.22-29.6,52.36-40.58,73.88-4.05,7.84-5.65,12.22.55,16.88l5.1,3.81c.6,2.11-1.59,5.94-3.68,5.62-7.69-4.86-14.95-9.25-23.34-14.06-7.71-4.43-17.22-9.67-25.63-14.05-1.58-2,.45-5.93,2.83-6.11l5.51,2.28c8.45,3.53,9.6,1.53,15.41-8.6l24.45-43.39,10.87-18.94-.34-.19c-27.93,19.3-57.55,39.18-85,60.77a6.4,6.4,0,0,1-4.09-.8,10.6,10.6,0,0,1-3.88-3.55c5.15-24.43,7.74-77.72,10.54-104.82l-.34-.2c-6.88,10.41-11.25,17.62-16.38,26.16-6.37,10.7-16.07,27.21-21.79,37.18-4.77,8.31-5.08,11.22,1.2,16.15l6.1,4.83c.7,1.95-1.83,5.57-3.68,5.62-6.14-4-13.41-8.36-19.91-12.1-5.48-3.14-12.08-6.71-19.12-10.31-1.85-1.94.63-6.26,2.65-6.21l3.37,1.27c9.59,3.52,11.19,3.11,18.12-6.6,5.53-7.65,14.34-21.8,24.43-37,7.07-10.73,15.14-24,20.29-33,5.43-9.47,3.1-14.13-3.09-19.22Z"/><path class="cls-1" d="M1589.89,3282.12c-.91-2,.77-6.29,3-6,6.11,2.8,13.94,6.08,22.95,9.6,6.07,2.38,11.4,4.46,18.22,6.51-4.32,11.06-2.15,24.46-.62,44.39l2.29,29.9c.25,4.22,2.47,18.05,3.3,23.51,4.07-3.34,9.17-7.72,18.26-16.3l17-15.95c16-14.92,24.31-22.58,34.36-36.33a184.69,184.69,0,0,0,18,7.65c6.07,2.38,14.6,5.51,21.35,7.74,1.61,1.86.28,5.25-1.89,6.46l-5.68-1.2c-8-1.7-12.54-1-16.24,8.46-14.38,36.74-21.55,56.15-29.24,79.06-2.85,8.35-3.79,12.92,3,16.62l5.61,3c.91,2-.7,6.11-2.81,6.1-8.32-3.67-16.16-6.94-25.16-10.46-8.27-3.24-18.45-7-27.42-10.12-1.85-1.75-.43-5.93,1.89-6.46l5.8,1.45c8.87,2.24,9.71.1,14-10.78l17.78-46.52,8-20.34-.37-.14c-24.77,23.21-51.13,47.25-75.06,72.64a6.42,6.42,0,0,1-4.17-.19,10.53,10.53,0,0,1-4.36-2.94c1.49-24.92-3.81-78-5-105.23l-.37-.14c-5.27,11.31-8.52,19.08-12.34,28.29-4.72,11.52-11.88,29.28-16.07,40-3.49,8.92-3.37,11.84,3.57,15.79l6.75,3.88c1,1.82-1,5.78-2.81,6.1-6.67-3-14.5-6.29-21.49-9-5.88-2.3-12.93-4.85-20.43-7.38-2.11-1.64-.29-6.28,1.71-6.53l3.52.76c10,2.07,11.53,1.43,17-9.2,4.34-8.38,11-23.68,18.7-40.2,5.41-11.66,11.43-26,15.2-35.6,4-10.16,1-14.42-5.88-18.55Z"/><path class="cls-1" d="M1772.51,3428.25c-4.59-1.16-5.21-1.12-7.25,2.12L1752.34,3450c-2.09,3.42-2.66,4.85-3,6.34-.29,1.11,1.92,2.86,7,5.14l5.51,2.39c.82,1.59.12,6-2,6.4-6.61-2.07-13.49-3.81-21.48-6-6.51-1.64-11-2.2-19.86-4.43-1.82-1.65-.64-5.5,1.08-6.64l5.3.75c4.74.6,8.94.09,14-6.33,5.13-6.6,11-14.6,19.58-26.66l28.89-40.89c7.36-10.59,12.26-16.26,13.05-21.79,9.7.28,19.09-7,19.47-6.93,2.49.63,3.4,1.85,3.46,4.83.17,5.77.72,13.23,2.17,27.62l7.59,79.38c1.2,12.16,1.84,16.87,8.63,19.77l7,3c.92,1.22.17,5.77-1.83,6.45-9.09-2.7-19.38-5.5-29.33-8-9.57-2.42-17.08-4.13-26-6-1.82-1.64-1.21-5.64,1.27-6.59l6.36.62c4.59.37,5.68-.73,6-1.85.33-1.3.12-6.09-.44-13.55l-1.12-17.27c-.2-3.22-1.64-4-8.34-5.67Zm24.31-4.32c4.4,1.12,5.5.8,5.19-4.41l-1.17-16.3c-.65-8.66-1.56-19.56-2.29-23.9-2.62,3.88-9,12.94-14,20.76l-8.31,12.71c-3,4.58-2.17,5.38,2.61,6.59Z"/><path class="cls-1" d="M1998.55,3464.35c-12.52,22-19.27,36.44-24.94,46.61a13.61,13.61,0,0,1-7,.77,8.36,8.36,0,0,1-5.13-2.1c-1.6-5.38-3.83-15.83-5.87-22.61l-23.34-81c-5.47-19.1-6.41-19.59-12.52-21.79l-7.64-2.76c-1.34-2.27-.38-5.63,1.49-6.4,10,1.28,16.42,2.37,26.63,3.49,9,1,17.48,1.71,29.5,2.64,1.44,1.31.85,4.91-.51,6.5l-6,.5c-3.61.37-5.11,1.36-5.3,3.08-.16,1.52,2.1,9.86,5.57,21.8l12.59,44.73,4.74,16.7c1.92-3.07,5.76-9.2,8.74-14.65l9.41-17.09c6.22-11.46,17-31.87,20-38.08,1.77-3.47,2.59-5.5,2.71-6.64.15-1.34-1.34-2.27-5.92-3.93l-6.14-2c-1.4-1.7-1-5.7,1.49-6.4,9.18,1.39,16.62,2.39,24.08,3.21,6.67.72,12.58,1.18,18.31,1.42,1.49.93,1.19,5.53-.31,6.52l-5.21.39c-5.6.36-9.08,1.33-12.07,5.05-5,5.81-11.07,15.94-19.42,30.63Z"/><path class="cls-1" d="M2095.45,3440c-.08,5.36.11,5.75,5.44,5.83l13.62.21c10.26.17,12.65-1.14,14.77-10.3l1.06-4.77c1.41-1.51,6.34-1.43,7.3.3-.49,6.13-.79,13-.91,20.3s0,14.17.28,20.31c-1,1.71-6,1.82-7.31.08l-.91-4.81c-1.83-9.22-4.18-10.79-14.44-11l-13.62-.22c-5.33-.08-5.53.11-5.62,5.85l-.36,22.79c-.14,8.81.56,15,2.87,18.25,2.52,3.49,6.24,5.08,20.65,5.3,17.17.28,23.89-.19,35.09-21.66,1.61-2.09,6.54-1.24,7.29,1.07-1,10-5.93,25.38-8.77,30.51-10.46-.55-29.4-1-45.59-1.29l-25.66-.41c-9.48-.15-19.15-.11-34,0-1.56-1.17-1.49-5.77.11-6.7l9.29-1.19c8.91-1.21,10.11-2.34,10.39-20l1.12-71.44c.27-17.43-.9-18.59-9.75-20.46l-4.92-1c-1.76-1.18-1.49-5.58.5-6.7,9.27.53,18.94.87,28.41,1l41.85.66c12.63.2,23.89.19,26.46-.15.15,3.06,1.31,16.87,2.1,29.72-.82,2.1-5.37,2.41-7.32.65-2.06-6.73-4.73-12.52-7.26-15.25-3.69-3.69-9.58-6.09-19.25-6.24l-15.79-.25c-6.51-.1-6.52.28-6.63,7.37Z"/><path class="cls-1" d="M2188.9,3420.13c-1.72-19.08-2.3-21.14-10.66-21.54l-5.38-.28c-2.05-.78-2.48-5.55-.21-6.71,14.66-2.29,29.93-4.44,48.6-6.12,16.72-1.51,31.29-.33,39.16,3.38,12,5.46,18.75,14.46,19.85,26.67,1.53,17-9.61,25.29-18.25,30.5-1.88,1.13-1.78,2.28-.61,4.28,15.29,24.4,24.64,38,34.78,44.94a24.49,24.49,0,0,0,13.66,4.15c1.85.8,2.11,3.66,1.23,4.89-3,1.62-9.28,2.57-15.38,3.12-18.08,1.64-30.05-3.63-40-16.58a236.43,236.43,0,0,1-18-28.18c-2.83-4.94-6.11-6.18-11-5.74-6.88.62-7.23,1-6.89,4.85l2.12,23.47c1.58,17.55,2.88,18.78,11.87,19.5l5.39.48c1.47.83,1.88,5.41.61,6.68-10.46.56-19.52,1.18-29,2-9.83.89-18.46,1.86-28.65,3.17-1.68-1-2.09-5.58-.6-6.68l5.22-1.43c8.71-2.33,9.77-3.77,8.18-21.32Zm29.13,21.79c.6,6.68,1.24,7.2,12.84,6.15,7.08-.64,11.05-2.73,14.46-6.69,3.05-3.54,6.24-10,5.22-21.24-1.55-17.17-13-27.29-28.31-25.91-8.06.73-8.4,1.34-7.57,10.5Z"/><path class="cls-1" d="M2363.21,3466.12c3.13,17.73,4.53,18.84,13.74,18.78l5.61,0c1.76.85,2.33,5.23,1,6.63-10.56,1.48-20.12,3-29.26,4.59-9.33,1.64-19,3.55-29.45,5.78-1.75-.86-2.52-5.2-1.16-6.6l5.28-1.91c8.67-3.09,9.61-4.61,6.48-22.34l-12.26-69.42c-3.13-17.73-4.53-18.84-13.73-18.78l-5.61,0c-1.76-.85-2.52-5.19-1.17-6.6,10.56-1.48,20.32-3,29.65-4.65,9.14-1.61,18.82-3.52,29.25-5.75,1.76.86,2.52,5.2,1.17,6.6l-5.28,1.91c-8.67,3.09-9.61,4.61-6.48,22.34Z"/><path class="cls-1" d="M2422.92,3366.92c-1.18-4.44-1.42-5.37-6-4.16l-11.83,3.13c-13.93,3.69-16,12.15-18.13,27.19-2,1.71-5.72,2.3-7.5.2.62-13.84-1.46-25.57-2-33.15a4.74,4.74,0,0,1,2.42-1.63,4.68,4.68,0,0,1,2.87,0c1.79,2.9,2.56,3.49,17.06-.35l71-18.78c12.6-3.33,15.41-4.28,16.1-8.62a5.09,5.09,0,0,1,2.33-1.21,4.26,4.26,0,0,1,3.21.54c-.24,6.8,2.39,22.15,5.57,32.61-.52,1.91-5.57,3.65-6.92,2.42-6.38-11-11.35-19-25.67-15.2l-11.45,3c-4.58,1.21-5,1.91-3.73,6.73l21.61,81.66c4.55,17.23,6.09,18.4,15,17.24l7.88-1.09c1.63.76,2.76,5,1.72,6.48-12.51,2.91-22.1,5.25-30.68,7.52-9.16,2.43-19,5.24-32.3,9.14-1.82-.7-2.95-5-1.72-6.48l8.35-3.2c8.34-3.19,9-5.16,4.49-22.39Z"/><path class="cls-1" d="M2547.4,3401.45c-4.45,1.63-4.94,2-4.8,5.83l.4,23.52c.21,4,.55,5.51,1.08,6.95.39,1.08,3.19,1.27,8.72.27l5.89-1.13c1.57.85,3.45,4.85,1.93,6.43-6.62,2-13.29,4.45-21.15,7.12-6.3,2.31-10.37,4.41-18.89,7.53-2.44-.33-3.63-4.17-2.86-6.09l4.8-2.37c4.26-2.17,7.44-5,8-13.13.52-8.35.88-18.27,1.15-33.06l.8-50.06c.11-12.89,1-20.34-1.5-25.35,8.17-5.24,11.8-16.56,12.17-16.7,2.41-.88,3.86-.39,5.58,2,3.4,4.67,8.06,10.51,17.37,21.58l51,61.29c7.84,9.36,11,12.89,18.28,11.46l7.44-1.5c1.44.49,3.39,4.67,2.12,6.36-9,2.9-19.11,6.38-28.75,9.91-9.27,3.4-16.43,6.22-24.83,9.7-2.43-.33-4.19-4-2.67-6.16l5.6-3.07c4-2.28,4.28-3.81,3.89-4.89-.47-1.26-3.34-5.1-8-10.94l-10.67-13.64c-2-2.54-3.6-2.35-10.08,0Zm17.64-17.27c4.26-1.56,5-2.44,1.8-6.57l-10.16-12.81c-5.42-6.78-12.31-15.28-15.37-18.44,0,4.68-.12,15.75.13,25l.31,15.19c.1,5.46,1.23,5.66,5.86,4Z"/><path class="cls-1" d="M2637,3291.05c-2-4.15-2.39-5-6.67-3l-11,5.27c-13,6.2-13.45,14.9-12.79,30.07-1.64,2.05-5.19,3.32-7.33,1.58-1.94-13.71-6.16-24.86-8.13-32.2a4.81,4.81,0,0,1,2.09-2.05,4.58,4.58,0,0,1,2.82-.5c2.29,2.52,3.16,3,16.7-3.5l66.3-31.58c11.76-5.6,14.36-7,14.23-11.45a5.12,5.12,0,0,1,2.07-1.62,4.25,4.25,0,0,1,3.25-.06c1,6.73,6.44,21.33,11.5,31-.15,2-4.8,4.62-6.35,3.66-8.3-9.62-14.67-16.56-28-10.19l-10.69,5.09c-4.28,2-4.57,2.81-2.42,7.31l36.33,76.26c7.66,16.08,9.39,17,17.9,14.17l7.54-2.53c1.74.45,3.64,4.42,2.89,6.06-11.75,5.17-20.75,9.24-28.77,13.06-8.55,4.08-17.74,8.66-30.05,15-1.92-.36-3.81-4.33-2.88-6.05l7.61-4.68c7.6-4.69,7.93-6.76.27-22.84Z"/><path class="cls-1" d="M2734.19,3257c-9.44-15.1-11.06-15.45-19.5-12.2l-4.69,1.8c-1.95-.13-4.35-3.6-3.12-5.73,8.23-4.7,16.7-9.77,24.74-14.79,8.2-5.13,16.3-10.42,24.13-15.77,1.95.14,4.18,3.71,3.45,5.52l-3.61,3.17c-6.72,6-6.91,7.93,2.54,23l23.45,37.51c11.88,19,27.16,38.6,52.6,22.69,21.42-13.4,16.58-35.67,2.67-57.92l-12.29-19.65c-8.23-13.16-16.61-25.08-21.09-28.15-3.64-2.47-7.94-1.15-13,.87l-5,2c-2.15-.46-3.85-3.92-3.45-5.52,9.24-5.33,15.87-9.25,22.73-13.54,6.19-3.87,12.29-7.91,18.44-12.21,1.62.35,4,3.39,3.45,5.53l-2.6,2.53c-3.74,3.69-6.32,6.66-5.69,11,.8,5.37,7.85,18.14,16.07,31.29l11.38,18.19c9.54,15.27,16.77,30.18,13.76,45.84-2.59,12.24-12.27,23.94-25.83,32.42-12.72,7.95-25.32,13.12-38.83,11.63-13.07-1.54-24.26-11.26-35.33-29Z"/><path class="cls-1" d="M2834.87,3169c-2.2-.17-5.14-3.7-3.84-5.53,5.4-4,12-9.29,19.48-15.48,5-4.17,9.4-7.84,14.5-12.83,7.6,9.13,20.38,13.68,38.58,22l27.3,12.42c3.82,1.8,17,6.53,22.19,8.44-1-5.18-2.34-11.76-5.48-23.86l-5.75-22.63c-5.35-21.22-8.06-32.18-15.27-47.62a185.74,185.74,0,0,0,15.39-12.07c5-4.17,11.86-10.13,17.07-15,2.41-.51,4.74,2.29,4.75,4.77L2960,3066c-5.36,6.21-6.92,10.51-.42,18.31,25.25,30.31,38.8,45.95,55.16,63.74,5.94,6.52,9.49,9.54,16,5.35l5.34-3.45c2.2.16,5,3.55,4,5.4-7.22,5.52-13.87,10.81-21.3,17-6.82,5.68-15,12.78-22.08,19.14-2.43.78-5.4-2.48-4.74-4.77l4.05-4.38c6.25-6.7,4.78-8.46-2.7-17.44l-32.18-38-14-16.78-.3.25c8.39,32.9,16.73,67.59,27.44,100.8a6.44,6.44,0,0,1-2.18,3.55,10.59,10.59,0,0,1-4.67,2.41c-21.12-13.32-70.18-34.28-94.62-46.34l-.3.26c7.36,10.07,12.61,16.67,18.83,24.45,7.82,9.69,19.93,24.53,27.28,33.36,6.13,7.36,8.76,8.67,15.56,4.49l6.65-4c2.07,0,4.59,3.66,4,5.4-5.86,4.38-12.5,9.67-18.27,14.47-4.85,4.05-10.49,9-16.31,14.34-2.46,1.06-5.65-2.77-4.9-4.64l2.36-2.72c6.63-7.77,6.81-9.41.12-19.29-5.25-7.84-15.46-21-26.2-35.77-7.61-10.36-17.24-22.54-23.86-30.48-7-8.39-12.16-7.82-19.09-3.8Z"/><circle class="cls-9" cx="2136.08" cy="2125.85" r="1457.91" transform="translate(-877.56 2133.08) rotate(-45)"/><polygon class="cls-1" points="2028.83 722.42 2028.82 722.42 2028.83 722.43 2028.83 722.42"/><polygon class="cls-1" points="2273.18 790.93 2273.18 790.94 2273.18 790.94 2273.18 790.93"/><path class="cls-1" d="M2374,864.34h0Z"/><path class="cls-10" d="M521.27,2009.12c-5.12-17.94-13.51-34.32-22.56-50.43-9.21-16.41-18.3-32.8-21-51.83-1.58-11-.92-21.55,4.26-31.64,6.63-12.92,16.53-23.27,26-34,5.91-6.67,11.87-13.29,17.8-19.94l-.44-.64-.09,0,0,0a12.78,12.78,0,0,0-1.87.61s-34,10.39-43.79,18.8c1.83-4.21.22-9-4.08-11.49l-.11-.06a12.56,12.56,0,0,0-1.8-.89,17.94,17.94,0,0,0-5.48-1.11,10.87,10.87,0,0,0-1.82.1c-7,1.06-14.06,2-20.76,4.1-21.23,6.63-37.79,20.16-52.08,36.73-4.26,5-8.12,10.25-12.16,15.39l.89.89.05,0,.06,0c12.78-12.87,27.48-22.61,44.69-28.33a17.89,17.89,0,0,1-2.58,3.47c-6.58,7.33-11.36,15.65-13.41,25.35-4.08,19.29-3.83,38.48,1.89,57.44,0,0,6.64,21,11,54.29l0,0,.33,2.88v0h0l.26,2.26h0c.06.52.11,1.09.17,1.62l.65,5.52-.06,0c5.07,50,3.6,121.94-28.2,193.49-13.37,20.37-23.56,42.11-26.35,67-2.05,18.26.4,35.79,9.34,52,2.62,4.77,6.09,9.09,9.17,13.61,0-.06,0-.11,0-.17l.12.17c-.33-8.14-1.92-15.63-2.54-23.2a173.14,173.14,0,0,1-.31-23.34c.4-7.46,2.27-14.67,6.81-21,1.29,11.54,2.1,22.72,3.88,33.75a84.77,84.77,0,0,0,21.05,44.38,78.22,78.22,0,0,0,32.51,21.27.46.46,0,0,0-.07-.07l.17.07a15.4,15.4,0,0,0-3.22-3.18c-35.35-28.61-47.67-70.11-33.18-112.64,8.87-26,24-48.13,42.93-67.9,13.47-14.06,27.39-27.84,39.49-43C527.79,2100.55,534.85,2056.72,521.27,2009.12Z"/><path class="cls-11" d="M268.44,1929.16c20.53.33,39,7.45,56.46,17.5,24.58,14.12,46.13,32.29,67.47,50.72,10.78,9.31,22,17.95,35.75,22.42,12,3.87,23.4,3.35,33.6-4.84,7.8-6.25,12.77-14.4,16.15-24.65-16.05,11.89-26.21,11.57-43.2.42a88.56,88.56,0,0,1-11.62-9c-12.07-11.2-23.71-22.87-35.93-33.88-21.77-19.59-45.64-35.91-73.77-45.2-26.61-8.78-53.18-8.65-79.43,1.17-17.64,6.6-33,17-46.88,29.74A187.45,187.45,0,0,0,147.19,1985c.58-.38,1.16-.74,1.72-1.15,25.67-18.72,51.53-37.09,81.75-48.13A104.21,104.21,0,0,1,268.44,1929.16Z"/><path class="cls-12" d="M484.58,2017.55c-1.82,8-5.16,14-11,18.25-13.63,9.79-28.71,11.28-44.53,7-18.48-5-34.35-15.13-49.22-26.67-18-14-35.51-28.69-53.23-43.08-11.62-9.43-24.32-16.56-39.36-18.92-19.49-3.06-38.25-.07-56.51,6.82-7.48,2.82-14.79,6.12-22.18,9.2a6.35,6.35,0,0,0,3.9.06c7.62-1.56,15.19-3.92,22.88-4.51,23.45-1.81,45.24,3.73,63.74,18.53,16.89,13.52,33.15,27.86,49.31,42.26s32.87,28.33,53.47,36.34,41.06,11.5,62.06,1.39C480.57,2056.2,491.44,2036.47,484.58,2017.55Z"/><path class="cls-13" d="M393.61,2180.9c-46.17,14.3-60.84,63.15-37.53,104.85C351.47,2244.61,365.2,2210.47,393.61,2180.9Z"/><path class="cls-14" d="M470.28,2337.43c-27.15-31.26-35.22-67.16-28.61-107.63C411.77,2267.78,427.42,2316.33,470.28,2337.43Z"/><path class="cls-15" d="M330.72,2046l.1-.1-19.69-17.39q-8.06-6.57-16.13-13.12a102.7,102.7,0,0,0-17.52-11.64c-8.32-3.6-42-16.35-61.35,3.84l-.72.25c19,.6,36.67,6.42,52,18.73,16.9,13.52,33.16,27.86,49.32,42.26s32.87,28.33,53.47,36.33c22.14,6.44,37.49-11.93,37.49-11.93C382.18,2095.13,330.72,2046,330.72,2046Z"/><path class="cls-16" d="M3746.71,2009.12c5.12-17.94,13.51-34.32,22.56-50.43,9.21-16.41,18.3-32.8,21-51.83,1.58-11,.92-21.55-4.26-31.64-6.63-12.92-16.53-23.27-26-34-5.91-6.67-11.87-13.29-17.8-19.94l.44-.64.09,0,0,0a13.18,13.18,0,0,1,1.87.61s34,10.39,43.79,18.8c-1.83-4.21-.22-9,4.08-11.49l.11-.06a12.56,12.56,0,0,1,1.8-.89,17.94,17.94,0,0,1,5.48-1.11,10.93,10.93,0,0,1,1.82.1c7,1.06,14.06,2,20.76,4.1,21.23,6.63,37.79,20.16,52.08,36.73,4.26,5,8.12,10.25,12.16,15.39l-.89.89-.06,0-.05,0c-12.78-12.87-27.48-22.61-44.69-28.33a17.49,17.49,0,0,0,2.58,3.47c6.58,7.33,11.36,15.65,13.41,25.35,4.08,19.29,3.83,38.48-1.89,57.44,0,0-6.64,21-11,54.29l0,0-.33,2.88v0h0l-.26,2.26h0c-.06.52-.11,1.09-.17,1.62l-.65,5.52.06,0c-5.07,50-3.6,121.94,28.2,193.49,13.37,20.37,23.56,42.11,26.35,67,2,18.26-.4,35.79-9.34,52-2.62,4.77-6.09,9.09-9.17,13.61,0-.06,0-.11,0-.17l-.12.17c.33-8.14,1.92-15.63,2.54-23.2a173.14,173.14,0,0,0,.31-23.34c-.4-7.46-2.27-14.67-6.81-21-1.29,11.54-2.1,22.72-3.88,33.75a84.77,84.77,0,0,1-21.05,44.38,78.22,78.22,0,0,1-32.51,21.27l.06-.07-.16.07a15.4,15.4,0,0,1,3.22-3.18c35.35-28.61,47.67-70.11,33.18-112.64-8.87-26-24-48.13-42.93-67.9-13.47-14.06-27.39-27.84-39.49-43C3740.19,2100.55,3733.13,2056.72,3746.71,2009.12Z"/><path class="cls-17" d="M3999.53,1929.16c-20.52.33-39,7.45-56.45,17.5-24.58,14.12-46.13,32.29-67.47,50.72-10.78,9.31-22,17.95-35.75,22.42-12,3.87-23.4,3.35-33.6-4.84-7.8-6.25-12.77-14.4-16.15-24.65,16,11.89,26.21,11.57,43.2.42a89.23,89.23,0,0,0,11.62-9c12.07-11.2,23.71-22.87,35.93-33.88,21.77-19.59,45.64-35.91,73.76-45.2,26.61-8.78,53.19-8.65,79.44,1.17,17.64,6.6,33.05,17,46.88,29.74a187.45,187.45,0,0,1,39.85,51.49c-.58-.38-1.16-.74-1.72-1.15-25.67-18.72-51.53-37.09-81.75-48.13A104.23,104.23,0,0,0,3999.53,1929.16Z"/><path class="cls-18" d="M3783.4,2017.55c1.82,8,5.16,14,11,18.25,13.63,9.79,28.71,11.28,44.53,7,18.48-5,34.35-15.13,49.22-26.67,18-14,35.51-28.69,53.23-43.08,11.61-9.43,24.32-16.56,39.36-18.92,19.49-3.06,38.25-.07,56.51,6.82,7.48,2.82,14.79,6.12,22.18,9.2a6.35,6.35,0,0,1-3.9.06c-7.63-1.56-15.19-3.92-22.88-4.51-23.45-1.81-45.24,3.73-63.74,18.53-16.89,13.52-33.15,27.86-49.31,42.26s-32.87,28.33-53.47,36.34-41.06,11.5-62.06,1.39C3787.41,2056.2,3776.54,2036.47,3783.4,2017.55Z"/><path class="cls-19" d="M3874.37,2180.9c46.17,14.3,60.84,63.15,37.53,104.85C3916.51,2244.61,3902.78,2210.47,3874.37,2180.9Z"/><path class="cls-20" d="M3797.7,2337.43c27.15-31.26,35.22-67.16,28.61-107.63C3856.21,2267.78,3840.56,2316.33,3797.7,2337.43Z"/><path class="cls-21" d="M3937.26,2046l-.11-.1,19.7-17.39q8.05-6.57,16.13-13.12a102.7,102.7,0,0,1,17.52-11.64c8.32-3.6,42-16.35,61.35,3.84l.72.25c-19,.6-36.67,6.42-52.05,18.73-16.9,13.52-33.16,27.86-49.32,42.26s-32.87,28.33-53.47,36.33c-22.14,6.44-37.49-11.93-37.49-11.93C3885.8,2095.13,3937.26,2046,3937.26,2046Z"/></g></g></svg>