<svg xmlns="http://www.w3.org/2000/svg" xmlns:xlink="http://www.w3.org/1999/xlink" viewBox="0 0 2356.83 846.32"><defs><style>.cls-1,.cls-8{fill:#fff;}.cls-2,.cls-6,.cls-9{fill:none;}.cls-2,.cls-9{stroke:#2b2c6c;stroke-miterlimit:10;}.cls-2{stroke-width:13.93px;}.cls-3{fill:#ec2227;}.cls-4{fill:url(#linear-gradient);}.cls-5{fill:#28245f;}.cls-6{stroke:#292562;stroke-miterlimit:10;stroke-width:1.79px;}.cls-7{fill:#27255f;}.cls-8{stroke:#27255f;stroke-width:0.6px;}.cls-9{stroke-width:2.79px;}.cls-10{fill:url(#linear-gradient-2);}.cls-11{fill:url(#linear-gradient-3);}.cls-12{fill:url(#linear-gradient-4);}.cls-13{fill:url(#linear-gradient-5);}.cls-14{fill:url(#linear-gradient-6);}.cls-15{fill:url(#linear-gradient-7);}.cls-16{fill:url(#linear-gradient-8);}.cls-17{fill:url(#linear-gradient-9);}.cls-18{fill:url(#linear-gradient-10);}.cls-19{fill:url(#linear-gradient-11);}.cls-20{fill:url(#linear-gradient-12);}.cls-21{fill:url(#linear-gradient-13);}.cls-22{fill:#231f20;}</style><linearGradient id="linear-gradient" x1="372.6" y1="12.91" x2="473.72" y2="-560.59" gradientTransform="matrix(1, 0, 0, -1, 0, 149.32)" gradientUnits="userSpaceOnUse"><stop offset="0.07" stop-color="#353994"/><stop offset="0.11" stop-color="#343891"/><stop offset="0.41" stop-color="#2e307d"/><stop offset="0.71" stop-color="#2c2d71"/><stop offset="1" stop-color="#2b2c6c"/></linearGradient><linearGradient id="linear-gradient-2" x1="73.65" y1="-267.38" x2="105.07" y2="-267.38" xlink:href="#linear-gradient"/><linearGradient id="linear-gradient-3" x1="48.56" y1="-211.85" x2="114.38" y2="-211.85" gradientTransform="matrix(1, -0.01, -0.01, -1, -20.7, 178.74)" xlink:href="#linear-gradient"/><linearGradient id="linear-gradient-4" x1="60.8" y1="-222.29" x2="116.08" y2="-222.29" gradientTransform="matrix(1, -0.01, -0.01, -1, -20.7, 178.74)" xlink:href="#linear-gradient"/><linearGradient id="linear-gradient-5" x1="68.7" y1="-295.23" x2="78.35" y2="-295.23" xlink:href="#linear-gradient"/><linearGradient id="linear-gradient-6" x1="84.84" y1="-305.24" x2="93.61" y2="-305.24" xlink:href="#linear-gradient"/><linearGradient id="linear-gradient-7" x1="62.11" y1="-230.16" x2="100.27" y2="-230.16" gradientTransform="matrix(1, -0.01, -0.01, -1, -20.7, 178.74)" xlink:href="#linear-gradient"/><linearGradient id="linear-gradient-8" x1="8067.83" y1="-267.38" x2="8099.25" y2="-267.38" gradientTransform="translate(8843.73 149.32) rotate(180)" xlink:href="#linear-gradient"/><linearGradient id="linear-gradient-9" x1="8041.49" y1="-292.69" x2="8107.29" y2="-292.69" gradientTransform="translate(8863.34 178.12) rotate(-179.43)" xlink:href="#linear-gradient"/><linearGradient id="linear-gradient-10" x1="8053.71" y1="-303.13" x2="8108.95" y2="-303.13" gradientTransform="translate(8863.34 178.12) rotate(-179.43)" xlink:href="#linear-gradient"/><linearGradient id="linear-gradient-11" x1="8062.88" y1="-295.23" x2="8072.53" y2="-295.23" gradientTransform="translate(8843.73 149.32) rotate(180)" xlink:href="#linear-gradient"/><linearGradient id="linear-gradient-12" x1="8079.02" y1="-305.24" x2="8087.79" y2="-305.24" gradientTransform="translate(8843.73 149.32) rotate(180)" xlink:href="#linear-gradient"/><linearGradient id="linear-gradient-13" x1="8055.04" y1="-310.97" x2="8093.2" y2="-310.97" gradientTransform="translate(8863.34 178.12) rotate(-179.43)" xlink:href="#linear-gradient"/></defs><g id="Layer_2" data-name="Layer 2"><g id="Layer_1-2" data-name="Layer 1"><g id="Layer_2-2" data-name="Layer 2"><g id="Layer_1-2-2" data-name="Layer 1-2"><circle class="cls-1" cx="422.18" cy="423.16" r="416.19"/><circle class="cls-2" cx="423.16" cy="423.16" r="416.19"/><path class="cls-3" d="M102.58,231.9a5.4,5.4,0,0,0,0,3.53,49.2,49.2,0,0,0,5.43,6.86c6,6.65,18.62,21.1,25.45,28.15a4.17,4.17,0,0,1-.48,2.34,3.21,3.21,0,0,1-1.33,1.49c-1.86,0-4.61-.15-6.77-.22l-7.33-.18c-2.46-.07-4.77-.14-6,0,.82,1.09,2,2.58,3.38,4.25L119.8,284c1.59,1.92,3.11,3.49,4.74,5.51a4.07,4.07,0,0,1-.52,2.41,3.6,3.6,0,0,1-1.32,1.49c-3.16-.25-10.12-.4-15.93-.49l-27.45-.21c-4.58-.05-5.08.18-6.52,2.08l-1.07,1.44c-.88.2-2.13-.45-2.12-1.31,1.25-2.3,2.57-4.95,4.11-8.21,1.32-2.81,2.43-5.33,3.45-7.82.5-.39,2.21.11,2.3.93L79.12,281c-.35,1.24-.25,1.84.19,2.05s4.09.28,9.49.41l17.09.33c4.81.08,7,0,8.94-.08-.92-1.37-3.23-4.26-5-6.36l-1.46-1.71a7.62,7.62,0,0,0-1.94-1.69,13.19,13.19,0,0,0-2.69-.41l-16.37-.22c-3.88,0-4.54.2-5.94,2.51l-.37.6c-.81.39-2.22-.43-2.14-1.25,1.42-2.68,2.66-5.14,4-8,1.53-3.26,2.62-5.71,3.27-7.43.55-.68,2.25.2,2.35.79l-.25,1.21c-.17.85-.37,1.93.08,2.14a5.67,5.67,0,0,0,2.19.33l5.31.16c1.61.06,3.73,0,5.15,0l-3.41-4-1-1.18a31.61,31.61,0,0,0-3.85-4.08c-.45-.2-.76,0-1.5.86l-1.53,2.09c-.66.23-2.09-.52-2.14-1.25,1-1.79,2.14-4.06,3.14-6.17,1.17-2.49,2.22-4.89,2.88-6.61a2,2,0,0,1,2.33,1l-.46,2c-.58,2.39-.8,2.83,2,6.87,1.89,2.77,4.33,5.87,5.6,7.49a23.49,23.49,0,0,0,2.66,3,5.21,5.21,0,0,0,1.84.24l7.87,0c4.29,0,6.76.07,7.83.11-6-6.57-12.42-13.9-18.76-20.63a34.84,34.84,0,0,0-4.4-4.1c-.63-.3-1.37.6-2,1.31l-1,1.22c-.81.24-2.09-.52-2.14-1.24,1.09-2,2.39-4.58,3.29-6.49,1.06-2.24,1.86-4.12,2.58-6,.6-.43,2,.17,2.33.86Z"/><path class="cls-3" d="M146.49,218.92c-1,1.34-1.11,1.55-.3,2.71l4.81,7.16a8.17,8.17,0,0,0,1.72,1.94c.33.26,1.23-.21,2.71-1.56l1.57-1.46c.65,0,2,.84,1.88,1.62-1.62,1.87-3.17,3.88-5,6.19-1.47,1.9-2.29,3.32-4.27,5.89-.81.36-1.94-.59-2.09-1.33l1-1.64c.86-1.48,1.28-2.94-.18-5.58s-3.38-5.8-6.24-10.41l-9.74-15.59c-2.54-4-3.76-6.46-5.52-7.54,1.46-3.16.31-7.34.39-7.45.56-.73,1.1-.85,2.11-.43,2,.8,4.56,1.72,9.61,3.39l27.79,9.26c4.26,1.4,5.94,1.89,7.86.07l2-1.86c.53-.12,2,.79,1.91,1.56-2.18,2.6-4.56,5.57-6.79,8.49s-3.79,5-5.65,7.69a1.6,1.6,0,0,1-2-1.4l1.09-2c.77-1.46.55-2,.22-2.25a30.5,30.5,0,0,0-4.63-1.86l-6-2.19c-1.11-.4-1.57,0-3.07,1.91Zm1.94-8.66c1-1.29,1-1.7-.76-2.37l-5.66-2c-3-1.07-6.8-2.39-8.36-2.79.95,1.44,3.11,4.88,5,7.7l3.12,4.63c1.12,1.67,1.51,1.52,2.59.12Z"/><path class="cls-3" d="M200,184.31c-4.76,4.42-9,5.82-10.62,6.2-2.05-.22-6.18-3.32-9.44-6.84a1.74,1.74,0,0,1,1.82-2c4.16,2.4,12,3.94,16.44-.14,3.83-3.56,3.14-7.83.73-10.42-3.89-4.19-10.13-3-14.67-1.69-5.46,1.59-12.43,2.29-17.18-2.83-5.48-5.8-4.68-14.07,2.82-21a28.48,28.48,0,0,1,6.67-4.64,16.17,16.17,0,0,0,2.14-1.22,34.47,34.47,0,0,1,7.8,6.53c.32.86-.92,2.12-1.87,2-3.33-1.82-9.06-3.53-12.79-.07-3.41,3.17-3.21,7.13-.8,9.71,2.21,2.39,6.34,2.59,10.18,1.53l5.1-1.36c4.79-1.27,11.66-2.07,17,3.62C209.18,168.06,207.8,177.06,200,184.31Z"/><path class="cls-3" d="M230.88,129.94c-2.45,1.54-2.47,1.64-1.42,3.31l5.42,8.6c3.5,5.56,4.2,5.87,7.11,4.53l2.07-1a2,2,0,0,1,1.31,2.09c-3.48,2-6.5,3.85-9.19,5.54-2.87,1.81-5.81,3.75-8.79,5.79a2,2,0,0,1-1.31-2.09l1.32-1.08c2.52-2.09,2.44-2.88-1.06-8.43l-14-22.22c-3.51-5.56-4.18-6-7.15-4.59l-1.55.72a2,2,0,0,1-1.32-2.09c3-1.73,6.15-3.63,9-5.43,2.69-1.7,5.64-3.64,8.19-5.41a2,2,0,0,1,1.32,2.09l-1.14,1c-2.33,2-2.33,2.8,1.18,8.35l4.36,6.93c1.1,1.73,1.2,1.76,3.64.21l12.42-7.83c2.51-1.58,2.48-1.64,1.38-3.37l-4.36-6.93c-3.51-5.56-4.1-5.85-7.12-4.53l-1.76.78a2,2,0,0,1-1.32-2.1c3.36-2,6.33-3.73,9.2-5.54s5.63-3.64,8.31-5.49a2,2,0,0,1,1.31,2.09l-1.08.94c-2.48,2.15-2.5,2.91,1,8.46l14,22.23c3.5,5.55,4.12,5.74,7.16,4.49l1.6-.67a2,2,0,0,1,1.32,2.09c-3.07,1.77-6,3.55-8.78,5.28q-4.47,2.84-8.67,5.72a2,2,0,0,1-1.31-2.09l1.19-1c2.52-2.09,2.45-2.88-1.06-8.43l-5.42-8.6c-1-1.68-1.09-1.74-3.6-.15Z"/><path class="cls-3" d="M299.91,107.67c2.52,6.14,3.1,6.44,6.32,5.73l2-.43a2,2,0,0,1,.87,2.32c-3.58,1.31-6.8,2.56-9.88,3.82s-6.37,2.69-9.84,4.27a2,2,0,0,1-.94-2.29l1.69-1.08c2.79-1.75,3-2.37.48-8.51l-9.86-24c-2.52-6.14-3.1-6.44-6.32-5.73l-2,.43a2,2,0,0,1-.94-2.29c3.59-1.32,6.88-2.59,10-3.88s6.31-2.66,9.79-4.24a2,2,0,0,1,.94,2.29l-1.7,1.07c-2.79,1.76-3,2.38-.48,8.52Z"/><path class="cls-3" d="M367.57,86.75c1,4.48,2,8.82,2.63,11.06-.29.93-2.05,2.12-3.71,2.5-.06,0-3.13-3-7.26-6.26L338.88,77.93c-5.09-4-8-6.37-9.49-7.13-.2.77.07,1.94.65,4.49l3,13.36c1.26,5.58,2.7,10.69,3.87,12.38.95,1.3,2.64,1.43,4.49,1.3l2-.16a2.24,2.24,0,0,1,.55,2.41c-3.75.7-6.53,1.25-9.28,1.87-2.55.58-5.08,1.22-7.67,2a2.23,2.23,0,0,1-.54-2.41l1.12-.47c1.79-.77,3.05-1.56,3.28-3.13.34-2-.62-7.24-1.87-12.82l-3.93-17.5c-.85-3.78-1.17-4.87-1.79-5.74-.81-1-2-1.66-4.45-1.46l-2,.16c-.6-.45-.91-2.12-.27-2.48,3.27-.59,6.73-1.29,9.56-1.93,2.34-.53,4.32-1,5.74-1.51,1.39,3,7,7.17,14.9,13.14l7.32,5.52c3.83,2.9,6.37,4.86,8.31,6.09A9.81,9.81,0,0,0,362,80.7l-2.14-9.51c-1.25-5.57-2.69-10.68-3.87-12.37-.94-1.31-2.57-1.45-4.49-1.31l-1.92.14a2.24,2.24,0,0,1-.54-2.41c3.75-.7,6.45-1.23,9.28-1.87,2.54-.57,5-1.19,7.66-1.94a2.25,2.25,0,0,1,.55,2.41l-1.2.49c-1.73.68-2.91,1.52-3.21,3.11-.33,2,.55,7.26,1.81,12.84Z"/><path class="cls-3" d="M438.14,86.5c.05,3,.22,4.38,1.56,4.64.29.27.24,1.48-.18,1.69A32.42,32.42,0,0,0,434.6,94a54.69,54.69,0,0,1-12.47,1.91,35.23,35.23,0,0,1-13.95-2.23c-8.32-3.17-14.1-10.91-14.28-21.08-.15-8.82,3.67-16.66,12.06-21.53a34.38,34.38,0,0,1,16.45-4c7.84-.14,11.75,1.49,14,1.45.25,2.11.4,7.05,1.2,11.35-.27.78-2.18.88-2.68.18-2.38-6.59-6.88-9.83-13.45-9.72-11.22.2-16.5,9.61-16.3,20.76.17,10.1,3.73,16,8.38,19.06a17.28,17.28,0,0,0,9.71,2.52c4-.07,4.86-.86,4.78-5.45L428,82.72c-.06-3.81-.49-4.23-3.89-4.66L421,77.69a1.6,1.6,0,0,1-.05-2.47c5,0,8.48.06,11.95,0s6.84-.2,9.24-.38a2,2,0,0,1,0,2.48l-1.62.31c-2.11.39-2.52,1.1-2.45,4.91Z"/><path class="cls-3" d="M480.19,57.85c.28-1.67.34-2-1.33-2.3l-4.32-.73c-5.08-.86-7,1.68-10,6.41a2,2,0,0,1-2.47-1.06,87.86,87.86,0,0,0,4.3-11.45,1.71,1.71,0,0,1,2,.26c.15,1.24.31,1.56,5.6,2.45l25.9,4.38c4.59.77,5.65.88,6.52-.48a1.77,1.77,0,0,1,.94,0,1.47,1.47,0,0,1,1,.66,50.34,50.34,0,0,0-3.06,11.8c-.46.57-2.36.4-2.62-.23-.43-4.65-.85-8.09-6.07-9l-4.18-.71c-1.67-.28-1.92-.1-2.22,1.71L485,90.24c-1.09,6.47-.77,7.1,2.3,8.05l2.72.82a2.22,2.22,0,0,1-.41,2.43c-4.5-.9-8-1.56-11.1-2.09-3.34-.56-7-1.1-11.87-1.79a2,2,0,0,1,.41-2.44l3.18.19c3.19.18,3.72-.38,4.81-6.85Z"/><path class="cls-3" d="M572.55,103.63C567,118,554.07,122.92,539.9,117.46c-13.24-5.11-19.5-17.52-14.2-31.28,5-13.05,18.67-19.37,32.44-14.06S577.7,90.26,572.55,103.63ZM556.44,75c-8.1-3.13-15.37,2.77-19.61,13.78-3.1,8-5.25,22,5.49,26.18,8.63,3.32,15.24-3.81,19.36-14.49C566,89.16,564.61,78.1,556.44,75Z"/><path class="cls-3" d="M624.8,148.54c-2.51,3.84-4.94,7.56-6.1,9.59-.88.44-3,0-4.38-.92-.06,0,0-4.32-.58-9.57l-2.6-25.82c-.69-6.44-1-10.19-1.5-11.78-.68.4-1.34,1.4-2.77,3.59l-7.49,11.46c-3.13,4.79-5.79,9.38-6.18,11.4-.28,1.59.81,2.89,2.19,4.13l1.5,1.32a2.26,2.26,0,0,1-1.35,2.07c-3.12-2.21-5.44-3.81-7.81-5.35-2.19-1.43-4.41-2.8-6.73-4.15a2.22,2.22,0,0,1,1.35-2.07l1.12.48c1.79.75,3.24,1.1,4.52.17,1.7-1.17,4.78-5.49,7.9-10.27l9.81-15c2.12-3.25,2.68-4.23,2.87-5.29.18-1.32-.18-2.57-2.06-4.21L605,97c-.1-.75.88-2.13,1.59-1.92,2.7,1.94,5.62,3.93,8,5.51,2,1.31,3.77,2.37,5.09,3.07-1.15,3-.25,10,.94,19.85l1.14,9.09c.6,4.78,1,8,1.43,10.21a10.42,10.42,0,0,0,2-2.5l5.32-8.16c3.13-4.78,5.79-9.38,6.18-11.4.28-1.59-.75-2.85-2.18-4.13l-1.45-1.28a2.25,2.25,0,0,1,1.36-2.07c3.11,2.2,5.37,3.77,7.8,5.35,2.19,1.43,4.35,2.76,6.74,4.15a2.25,2.25,0,0,1-1.36,2.07l-1.18-.52c-1.69-.77-3.12-1-4.46-.13-1.69,1.17-4.83,5.45-8,10.23Z"/><path class="cls-3" d="M679.15,164.82c5-4.49,5.89-5.49,4-8.14l-.8-1.09c-.2-.76,1.32-2.13,1.94-1.55,4.22,4.18,8.12,8.08,13.13,13.64,3.88,4.3,7.33,9,9.28,13.79A21.42,21.42,0,0,1,701,205.82c-7,6.33-15.72,8.07-24.15,4.72-5-2-9.55-5.65-14.41-11.06-2.22-2.47-4.27-5.37-6-7.26-2.27-2.52-4.73-5.15-7.53-8.05-.06-.7,1.2-1.84,1.84-1.65l1.73,1.39c2.49,2,3.19,2,8-2.37Zm-9.89,22.49c-2.88,2.59-4.68,4.4-4.93,6.34s.7,3.83,2.4,5.72c8.16,9.08,19,4.91,26.18-1.52,9.44-8.49,10.57-18.54,2-28-1.28-1.42-2.44-2.19-3.14-2.12s-1.75.91-3.39,2.37Z"/><path class="cls-3" d="M698.94,237.26a5.72,5.72,0,1,1,6.21,9.6,5.52,5.52,0,0,1-7.91-1.7A5.73,5.73,0,0,1,698.94,237.26Z"/><path class="cls-3" d="M771.89,287.73A92.31,92.31,0,0,0,762.2,293c-.89.09-1.93-1.53-1.56-2.25,5.2-4.44,6.56-10,3.74-16.25-3.23-7.14-12.8-12-25.6-6.25s-16.35,16.29-12.86,24,10.75,8.86,15.9,8.62a2,2,0,0,1,.66,2.65c-5,1.7-9.33,2.35-11.21,2.12-2.54-3-6-7-8.28-12-2.85-6.3-4.28-13.41-2.93-19.51a22.16,22.16,0,0,1,13.17-15.78,23.32,23.32,0,0,1,20.57.08c5.86,2.85,10.74,8.55,13.77,15.24S771.14,285.74,771.89,287.73Z"/><path class="cls-3" d="M741,326.27a5.72,5.72,0,1,1,3.1,11,5.52,5.52,0,0,1-7.05-4A5.74,5.74,0,0,1,741,326.27Z"/><circle class="cls-4" cx="423.16" cy="423.16" r="291.13"/><path class="cls-5" d="M104.56,508.09c1.25-.32,1.51-.38,1.19-1.63l-.79-3.23c-.95-3.8-3.31-4.38-7.5-5a1.5,1.5,0,0,1,0-2,65.27,65.27,0,0,0,9.28-.5,1.26,1.26,0,0,1,.44.67,1.23,1.23,0,0,1,0,.78c-.82.48-1,.69,0,4.65L112,521.18c.85,3.44,1.1,4.2,2.31,4.4a1.31,1.31,0,0,1,.33.64,1.16,1.16,0,0,1-.17.87,37.73,37.73,0,0,0-9.16,1.46c-.54-.15-1-1.53-.64-1.89,3.11-1.72,5.37-3.06,4.41-7l-.79-3.12c-.31-1.25-.5-1.37-1.86-1l-23,5.73c-4.85,1.21-5.18,1.63-4.91,4.05l.26,2.15a1.71,1.71,0,0,1-1.83.45c-.73-3.42-1.33-6-1.93-8.37-.62-2.5-1.35-5.2-2.36-8.82a1.53,1.53,0,0,1,1.82-.45l.85,2.28c.84,2.27,1.39,2.47,6.23,1.26Z"/><path class="cls-5" d="M106,559.88c-.86-2-.93-2.06-2.31-1.47l-7.13,3c-4.6,2-4.92,2.43-4.27,4.78l.47,1.66a1.54,1.54,0,0,1-1.73.74c-1.1-2.87-2.09-5.36-3-7.58-1-2.38-2.1-4.83-3.27-7.31a1.53,1.53,0,0,1,1.73-.73l.65,1.12c1.26,2.15,1.86,2.19,6.46.24l18.4-7.77c4.6-2,5-2.4,4.32-4.8l-.35-1.25a1.54,1.54,0,0,1,1.73-.74c.93,2.47,2,5.06,3,7.44.94,2.22,2,4.67,3,6.81a1.54,1.54,0,0,1-1.73.73l-.6-1c-1.19-2-1.81-2.08-6.41-.14l-5.74,2.42c-1.43.6-1.46.68-.6,2.71l4.35,10.29c.88,2.07.93,2.05,2.36,1.45l5.74-2.43c4.6-1.94,4.89-2.36,4.28-4.78l-.37-1.42a1.55,1.55,0,0,1,1.73-.73c1,2.77,2,5.21,3,7.58s2,4.68,3.1,6.91a1.54,1.54,0,0,1-1.73.74l-.57-.93c-1.31-2.13-1.88-2.24-6.48-.29l-18.4,7.77c-4.6,2-4.82,2.39-4.25,4.84l.3,1.27a1.54,1.54,0,0,1-1.73.73c-1-2.52-1.92-5-2.88-7.24q-1.57-3.71-3.22-7.21a1.55,1.55,0,0,1,1.73-.73l.61,1c1.25,2.15,1.85,2.19,6.45.24l7.13-3c1.38-.58,1.43-.59.55-2.68Z"/><path class="cls-5" d="M134.29,606.44c-1.28.78-1.35.88-.59,2.12l1.94,3.16c1.46,2.39,2.11,2.73,4.59,1.84l1.3-.48c.56.1,1.26,1.24,1,1.72-1.52.81-3.19,1.78-4.93,2.84s-3.36,2.13-4.77,3.12c-.55,0-1.3-1.09-1.08-1.67l1-.93c1.92-1.8,2-2.58.48-5l-1.93-3.15c-.76-1.24-.84-1.26-2.21-.41L123.63,613c-2.11,1.29-3.46,2.37-3.9,3.4s-.29,2.19,1.76,5.54c2.44,4,3.53,5.45,10.25,4.79a1.3,1.3,0,0,1,.81,1.83,30.45,30.45,0,0,1-8.5,2.58c-1.4-2.48-4-6.91-6.35-10.66l-3.65-6c-1.35-2.19-2.78-4.41-5-7.78.05-.54,1.15-1.21,1.59-1l1.64,2c1.59,1.86,2,2,6.24-.62l17.07-10.48c4.16-2.55,4.27-3,3.41-5.31l-.47-1.28a1.35,1.35,0,0,1,1.66-.89c1.23,2.2,2.56,4.47,3.91,6.67l6,9.7c1.79,2.93,3.44,5.51,3.9,6-.71.5-3.8,2.84-6.73,5-.62.13-1.35-.87-1.22-1.58a12.59,12.59,0,0,0,2.55-4c.33-1.4,0-3.11-1.34-5.35L145,601.94c-.93-1.51-1-1.46-2.72-.42Z"/><path class="cls-5" d="M174.14,665.73c-8.95,7.53-19.39,6-26.81-2.79-6.94-8.26-6.56-18.82,2-26,8.14-6.84,19.54-6,26.76,2.56S182.49,658.72,174.14,665.73Zm-.18-25c-4.25-5.05-11.26-3.8-18.12,2-5,4.21-11.59,12.74-6,19.45,4.53,5.39,11.55,3.06,18.21-2.53C175.11,653.69,178.24,645.81,174,640.71Z"/><path class="cls-5" d="M189.7,692.72c-1.68,1.89-2.65,3.32-2.7,4.43s.35,2.1,3.29,4.7c3.65,3.25,4.89,4.12,11.39,1.56.67-.12,1.46.87,1.31,1.59a32.78,32.78,0,0,1-7.5,5c-2.06-2-5.88-5.43-9.17-8.35l-5.38-4.78c-1.85-1.63-3.89-3.38-6.45-5.5-.15-.56.6-1.56,1.12-1.51l1.71,1.15c2,1.36,2.55,1.25,5.86-2.49l13.25-14.94c3.31-3.74,3.38-4.31,1.79-6.16l-1-1.19a1.22,1.22,0,0,1,1.32-1.34c2,1.94,4,3.76,5.92,5.47s4,3.45,6.06,5.15c.1.52-.71,1.45-1.25,1.4l-1.19-.76c-2.06-1.32-2.59-1.21-5.9,2.52Z"/><path class="cls-5" d="M253.06,728.22c-6.4,9.8-16.81,11.42-26.48,5.11-9-5.9-11.74-16.13-5.6-25.52,5.81-8.9,17-11.44,26.35-5.31S259,719.09,253.06,728.22Zm-7.44-23.88c-5.53-3.61-11.87-.38-16.77,7.13-3.58,5.49-7.39,15.57-.06,20.35,5.89,3.84,11.94-.42,16.69-7.7,5-7.7,5.72-16.15.15-19.79Z"/><path class="cls-5" d="M294.69,761.08c-.91,2.06-1.25,3.09-.39,3.7.11.28-.31,1.09-.67,1.11a25.81,25.81,0,0,0-3.77-.8,41,41,0,0,1-9.21-2.68,26.71,26.71,0,0,1-8.9-6c-4.72-4.86-6.23-12-3.09-19.11a17.77,17.77,0,0,1,15.22-11,26.16,26.16,0,0,1,12.63,2.49c5.45,2.42,7.63,4.8,9.2,5.5-.51,1.53-2,5-2.82,8.2-.44.46-1.79-.08-1.91-.73.48-5.31-1.59-9-6.15-11-7.81-3.47-14.46,1.34-17.9,9.09-3.12,7-2.57,12.26-.33,15.83a13,13,0,0,0,5.89,4.85c2.8,1.24,3.63,1,5-2.23l1.38-3.09c1.17-2.65,1-3.07-1.2-4.46l-2-1.26a1.21,1.21,0,0,1,.77-1.71c3.43,1.64,5.82,2.76,8.22,3.82s4.78,2.07,6.5,2.71a1.54,1.54,0,0,1-.77,1.72l-1.21-.31c-1.58-.4-2.09,0-3.27,2.61Z"/><path class="cls-5" d="M326.21,769.51c-1.45,4.83-1.24,5.28,1,6.4l1.36.69a1.54,1.54,0,0,1-.6,1.79c-2.75-.93-5.25-1.74-7.67-2.46s-5.06-1.45-7.86-2.18A1.53,1.53,0,0,1,313,772l1.52.17c2.49.3,2.91,0,4.35-4.81l5.66-18.93c1.44-4.84,1.24-5.29-1-6.41l-1.36-.68a1.53,1.53,0,0,1,.53-1.8c2.75.94,5.31,1.76,7.78,2.49s5,1.44,7.81,2.17a1.52,1.52,0,0,1-.53,1.79l-1.52-.17c-2.49-.3-2.91,0-4.35,4.81Z"/><path class="cls-5" d="M384.89,754.15a71.54,71.54,0,0,0-.75,8.36,1.47,1.47,0,0,1-2.07,0c-.6-5.18-3.55-8.38-8.69-9.25-5.87-1-13,3-14.79,13.53S362,784,368.31,785.11s10.15-3,12.18-6.39a1.53,1.53,0,0,1,1.95.71c-1,3.85-2.46,6.88-3.41,8a39.84,39.84,0,0,1-11.08.16c-5.19-.88-10.28-3-13.56-6.42a16.87,16.87,0,0,1-4.4-15,17.75,17.75,0,0,1,8.76-13c4.29-2.5,9.95-3.18,15.46-2.25S383.32,753.78,384.89,754.15Z"/><path class="cls-5" d="M408.87,778.5c-1.29,0-1.45,0-1.79,1l-2.25,6.17a6.43,6.43,0,0,0-.42,1.92c0,.32.68.66,2.18,1l1.6.3c.32.39.4,1.63-.15,1.88-1.87-.15-3.81-.2-6.06-.31-1.83,0-3.06.09-5.53,0-.59-.34-.51-1.46-.12-1.88l1.45-.13c1.3-.13,2.38-.53,3.34-2.6s2.05-4.68,3.59-8.51l5.2-13c1.31-3.35,2.27-5.21,2.15-6.77,2.59-.53,4.64-3.11,4.75-3.11.69,0,1,.3,1.21,1.11.39,1.56,1,3.57,2.23,7.41L427,784.25c1.06,3.25,1.51,4.49,3.49,4.86l2,.37c.31.28.4,1.57-.1,1.88-2.58-.17-5.47-.29-8.26-.36s-4.78-.06-7.25,0a1.21,1.21,0,0,1-.07-1.88l1.73-.22c1.24-.19,1.46-.56,1.47-.88a22.13,22.13,0,0,0-.93-3.68l-1.34-4.63c-.24-.86-.67-1-2.55-1Zm6.19-2.7c1.23,0,1.5-.12,1.11-1.53l-1.29-4.38c-.7-2.33-1.59-5.25-2.05-6.39-.46,1.23-1.59,4.1-2.47,6.55l-1.44,4c-.51,1.44-.25,1.61,1.09,1.64Z"/><path class="cls-5" d="M459.72,780.09c.28,2.51.68,4.19,1.46,5s1.81,1.15,5.7.72c4.86-.53,6.33-.85,8.81-7.39a1.43,1.43,0,0,1,2.06.1,32.92,32.92,0,0,1-1.35,8.9c-2.84.2-8,.71-12.34,1.19l-7.16.79c-2.45.26-5.11.61-8.41,1.08a1.46,1.46,0,0,1-.36-1.85l2-.49c2.36-.58,2.64-1,2.09-6l-2.16-19.86c-.55-5-.92-5.4-3.36-5.46l-1.57,0a1.23,1.23,0,0,1-.1-1.88q4.19-.29,8-.71c2.56-.28,5.22-.63,7.88-1a1.51,1.51,0,0,1,.2,1.86l-1.36.37c-2.37.64-2.64,1.1-2.1,6.06Z"/><path class="cls-5" d="M532.23,774.91a18.58,18.58,0,0,1-9.32.86c-1.33-.81-3.18-4.27-4.3-7.76a1.32,1.32,0,0,1,1.89-.78c2.1,3,7,6.59,11.38,5.19,3.78-1.22,4.68-4.38,3.85-6.94-1.33-4.14-6-5.34-9.57-5.88-4.27-.66-9.29-2.42-10.93-7.48-1.91-5.76,1.3-11.19,8.71-13.59a22.12,22.12,0,0,1,6.09-1.06,11.69,11.69,0,0,0,1.87-.15,26.54,26.54,0,0,1,3.28,7c-.06.7-1.32,1.16-1.95.8-1.7-2.32-5.1-5.35-8.79-4.16-3.37,1.09-4.5,3.88-3.68,6.43.76,2.36,3.55,3.82,6.53,4.33l4,.7c3.71.67,8.71,2.33,10.52,8C543.79,766.67,540,772.42,532.23,774.91Z"/><path class="cls-5" d="M564.42,738.51c.64,1.36.74,1.43,2.05.82l3.35-1.58c2.53-1.19,2.95-1.79,2.34-4.36l-.32-1.33c.15-.55,1.37-1.12,1.82-.79.63,1.59,1.4,3.38,2.27,5.22s1.74,3.58,2.56,5.08c0,.55-1.23,1.17-1.77.89l-.82-1.1c-1.58-2.1-2.34-2.22-4.87-1l-3.35,1.57c-1.32.62-1.34.69-.66,2.15l2.72,5.78c1,2.24,2,3.7,2.94,4.25s2.15.54,5.7-1.13c4.23-2,5.81-2.9,5.91-9.65a1.3,1.3,0,0,1,1.91-.6,30.66,30.66,0,0,1,1.61,8.74c-2.62,1.11-7.31,3.25-11.3,5.12l-6.32,3c-2.33,1.09-4.69,2.26-8.29,4.07-.52-.11-1.07-1.28-.79-1.7l2.12-1.42c2-1.36,2.19-1.79.08-6.26l-8.51-18.13c-2.07-4.43-2.5-4.58-4.89-4l-1.33.32a1.33,1.33,0,0,1-.7-1.74c2.32-1,4.73-2.05,7.06-3.14l10.31-4.84c3.11-1.46,5.85-2.81,6.44-3.2.42.75,2.39,4.09,4.17,7.23.06.63-1,1.25-1.71,1a12.2,12.2,0,0,0-3.65-3c-1.35-.49-3.09-.39-5.47.73l-3.89,1.82c-1.6.76-1.55.85-.71,2.65Z"/><path class="cls-5" d="M587.11,713.77c-.59-.12-1.32-1.18-.92-1.65,1.57-.94,3.51-2.19,5.68-3.67,1.47-1,2.76-1.87,4.26-3.09,1.88,2.75,5.27,4.4,10.06,7.25l7.19,4.26c1,.62,4.51,2.33,5.88,3-.14-1.46-.37-3.32-1-6.75l-1.06-6.43c-1-6-1.47-9.13-3.09-13.61a50.1,50.1,0,0,0,4.49-2.86c1.46-1,3.47-2.43,5-3.6.67-.07,1.25.77,1.2,1.46l-1.14,1.1c-1.61,1.55-2.14,2.68-.53,5,6.22,9.14,9.57,13.88,13.64,19.29,1.48,2,2.39,2.93,4.26,2l1.54-.8c.6.12,1.29,1.14,1,1.62-2.1,1.3-4,2.55-6.22,4-2,1.36-4.41,3.07-6.48,4.61-.68.13-1.42-.86-1.19-1.47l1.21-1.08c1.86-1.66,1.5-2.19-.35-4.9L622.64,706,619.2,701l-.09.06c1.54,9.34,3,19.17,5.21,28.66a1.75,1.75,0,0,1-.68.92,2.82,2.82,0,0,1-1.33.52c-5.48-4.33-18.43-11.62-24.84-15.71l-.09.06c1.79,3,3.07,5,4.59,7.33,1.92,2.92,4.9,7.39,6.71,10,1.51,2.22,2.2,2.66,4.15,1.72l1.92-.91a1.55,1.55,0,0,1,1,1.62c-1.71,1-3.65,2.28-5.33,3.43-1.43,1-3.08,2.15-4.8,3.45-.69.22-1.48-.94-1.23-1.43l.71-.68c2-1.94,2.08-2.39.47-5.32-1.26-2.33-3.75-6.28-6.35-10.68-1.85-3.1-4.21-6.75-5.84-9.16s-3.15-2.53-5.14-1.63Z"/><path class="cls-5" d="M661.84,689.44c3.38,3.74,3.88,3.8,6,2.46l1.29-.82c.54-.05,1.33.9,1.22,1.43-2.21,1.87-4.2,3.6-6.07,5.29s-3.86,3.59-5.93,5.61a1.53,1.53,0,0,1-1.27-1.39l.94-1.21c1.54-2,1.52-2.48-1.87-6.21L642.87,680c-3.39-3.74-3.88-3.8-6-2.46l-1.29.81a1.53,1.53,0,0,1-1.27-1.39c2.22-1.87,4.25-3.64,6.15-5.38s3.82-3.54,5.9-5.57a1.54,1.54,0,0,1,1.26,1.39l-.93,1.21c-1.54,2-1.53,2.48,1.87,6.21Z"/><path class="cls-5" d="M698.88,647.71c2.65,2.26,5.22,4.46,6.64,5.53a4.26,4.26,0,0,1-1.12,3.21s-3.27-.4-7.27-.49l-19.74-.55a77.88,77.88,0,0,0-9,0c.23.55.92,1.14,2.43,2.43l7.92,6.77c3.31,2.83,6.51,5.28,8,5.77,1.17.37,2.26-.33,3.33-1.25l1.14-1a1.72,1.72,0,0,1,1.43,1.22c-2,2.13-3.4,3.73-4.8,5.37s-2.54,3.06-3.78,4.68a1.73,1.73,0,0,1-1.43-1.22l.47-.8c.74-1.28,1.15-2.34.57-3.4-.72-1.39-3.67-4.12-7-7l-10.37-8.86c-2.25-1.92-2.93-2.43-3.71-2.68-1-.26-2-.11-3.39,1.15l-1.14,1c-.57,0-1.51-.87-1.29-1.38,1.72-1.85,3.51-3.86,4.94-5.53,1.19-1.4,2.15-2.61,2.8-3.53,2.19,1.16,7.57,1.15,15.07,1.21l7,0c3.66,0,6.1.06,7.84-.08a7.53,7.53,0,0,0-1.7-1.73l-5.63-4.82c-3.3-2.82-6.51-5.27-8-5.77-1.17-.36-2.23.29-3.33,1.25l-1.11,1A1.71,1.71,0,0,1,673.2,637c2-2.14,3.36-3.69,4.79-5.37,1.29-1.51,2.5-3,3.78-4.68a1.71,1.71,0,0,1,1.43,1.23l-.5.83c-.75,1.2-1.08,2.26-.54,3.36.72,1.39,3.64,4.18,7,7Z"/><path class="cls-5" d="M714.16,620.7c-.68,1.09-.73,1.26,0,2.07l4.16,5.08a6.31,6.31,0,0,0,1.44,1.35c.28.17.92-.25,1.94-1.38l1.09-1.23c.49-.07,1.59.49,1.53,1.09-1.08,1.54-2.11,3.17-3.35,5.06-1,1.54-1.49,2.68-2.8,4.78-.59.32-1.52-.32-1.68-.87l.63-1.31c.55-1.18.75-2.32-.53-4.2s-3-4.15-5.49-7.43l-8.51-11.09c-2.21-2.85-3.32-4.62-4.72-5.31.87-2.5-.31-5.57-.25-5.67.37-.6.77-.72,1.56-.47,1.55.46,3.58,1,7.52,1.85l21.71,5c3.33.75,4.64,1,6-.51l1.36-1.56c.4-.13,1.55.46,1.56,1-1.46,2.13-3,4.56-4.52,6.92s-2.49,4.08-3.71,6.23a1.22,1.22,0,0,1-1.65-.9l.68-1.6c.47-1.16.27-1.54,0-1.71a21.93,21.93,0,0,0-3.63-1.07l-4.69-1.23c-.87-.22-1.19.08-2.19,1.67ZM715,614c.65-1,.66-1.36-.75-1.73l-4.43-1.13c-2.36-.6-5.33-1.31-6.54-1.5.82,1,2.71,3.47,4.38,5.46l2.7,3.28c1,1.18,1.25,1,2-.1Z"/><path class="cls-5" d="M722.08,577.43c-4.91-2.18-5.49-2.32-6.7-.4l-.79,1.24c-.46.38-1.69-.17-1.67-.86,1.39-3.79,2.89-7.71,5-12.37,1.86-4.18,4.09-7.47,6-8.83a8.77,8.77,0,0,1,9.18-1.09c4.36,1.94,4.92,5.71,5,8.47,0,.6.33.73,1,.72,8-.31,12.58-.69,15.64-2.15a6.62,6.62,0,0,0,2.84-2.68,1,1,0,0,1,1.36.37,12.77,12.77,0,0,1-1.28,4.08c-2,4.51-4.89,6.64-9.38,7.22a65.91,65.91,0,0,1-9.31.45,2.71,2.71,0,0,0-2.87,1.84c-.76,1.72-.71,1.86.27,2.29l6,2.69c4.51,2,5,1.86,6.37-.17l.83-1.22a1.72,1.72,0,0,1,1.72.76c-1.26,2.56-2.31,4.8-3.35,7.15s-2,4.64-3,7.23c-.47.26-1.65-.26-1.72-.76l.34-1.44c.6-2.39.38-2.83-4.13-4.83Zm9.22-4c1.71.77,1.93.68,3.21-2.21a5.17,5.17,0,0,0,.29-4.34c-.47-1.21-1.62-2.83-4.52-4.12-4.41-2-8.41-.63-10.12,3.2-.89,2-.79,2.17,1.57,3.22Z"/><path class="cls-5" d="M761.31,527c4.79,1.4,5.29,1.21,6.28-1l.87-2a1.69,1.69,0,0,1,1.8.53c-1.09,3.31-1.88,5.82-2.61,8.3s-1.43,5.06-2.22,8.13a1.53,1.53,0,0,1-1.8-.53l.26-1.83c.32-2.42.05-2.84-4.74-4.24l-2.58-.76a11,11,0,0,0-6.54-.41l-14.47,2.42c-2.42.41-3.39.63-4.22,2.34l-.82,1.67c-.55.34-1.77-.08-1.74-.74.78-2.29,1.39-4.18,2.29-7.22s1.64-5.78,2-7.56c.34-.4,1.56-.16,1.83.42l-.1,1.88c-.07,1,0,1.36.1,1.37.41.12,1.26.09,4-.28l6.22-.8c1.93-.27,4.65-.76,6.12-1-2.09-2.24-5-4.82-7.2-6.93-3.12-2.93-4.48-4-5.1-4.18-.31-.09-.86.64-1.43,1.82l-.49.92c-.38.34-1.68,0-1.79-.58.71-2,1.31-3.87,1.85-5.73s1-3.57,1.33-5.09c.39-.56,1.62-.2,1.86.32l-.14,1.42a4.75,4.75,0,0,0,.45,3,61.39,61.39,0,0,0,6,6.63l4.92,5A11.79,11.79,0,0,0,757.7,526Z"/><polyline class="cls-1" points="438.44 286.06 451.34 646.34 395.86 646.78 408.75 286.06 423.15 241.27"/><polyline class="cls-6" points="395.86 647.15 408.76 286.43 424.05 238.84 408.76 286.43 395.86 649.21 451.35 649.21 438.45 286.43 423.16 238.84"/><path class="cls-1" d="M268.81,353.47h5.47l52.18,117.6q3.89,8.85,7.71,12.08a15,15,0,0,0,10,3.23h1.19v3.87H289.58v-4.07q8.55-.19,11.59-2t3-6.51a19.05,19.05,0,0,0-.3-3.38,12.12,12.12,0,0,0-.9-2.89l-10.93-25.45H236.4l-9.34,21.58c-1.2,2.85-2,5.07-2.54,6.66a13.87,13.87,0,0,0-.74,3.87,6.69,6.69,0,0,0,3.28,6.17q3.27,2,10.24,2h2v4.08H195.35v-3.88A15.89,15.89,0,0,0,206,482.65q4.13-3.63,8.8-13.76Zm-29.53,84.89h49.91L265.14,382.6Z"/><path class="cls-1" d="M616.73,472q10.24,0,13.77-3.62t4.23-13.87h4.67v35.79H584V453.57A39.22,39.22,0,0,0,609,438q9.19-12.48,9.2-30.87,0-21.37-11.93-34.2t-32.11-12.82q-20.08,0-32,12.77t-11.93,34.24q0,18.5,9.1,30.87t25.1,15.55v36.69H509.08V454.47h4.68q.59,10.14,4.12,13.81T531.65,472h25v-12q-24.06-4.38-37.28-18.19t-13.22-34.59q0-24.45,18.69-39.37t49.31-14.91q30.7,0,49.35,14.91t18.64,39.37q0,20.67-13.22,34.54t-37.18,18.24v12Z"/><path class="cls-7" d="M465.34,180.08h2.22v45H428.92a2.33,2.33,0,0,0-1.11.37,10.53,10.53,0,0,1-2.55.93,11.4,11.4,0,0,1-5.77-.26,14.28,14.28,0,0,1-1.66-.83,2.06,2.06,0,0,0-.81-.2H378.31v-45h2.28v-2.36c0-1.23,0-2.45,0-3.68a.62.62,0,0,1,.5-.72c.72-.24,1.41-.56,2.13-.79a.68.68,0,0,0,.56-.79c0-1.94,0-3.89,0-5.93,1.11-.22,2.21-.47,3.32-.63a45.81,45.81,0,0,1,34.34,8.22,12.31,12.31,0,0,1,1.16.89c.27.25.46.22.74,0a43.67,43.67,0,0,1,10.9-6.28,44.61,44.61,0,0,1,20.48-3.3c2.32.19,4.62.68,6.93,1,.43.06.52.25.51.65,0,1.8,0,3.59,0,5.39a.69.69,0,0,0,.56.78c.73.24,1.42.55,2.14.79a.63.63,0,0,1,.49.72c0,1.85,0,3.71,0,5.56A1.8,1.8,0,0,0,465.34,180.08Zm-43.17,42.46v-.81q0-22.59,0-45.19a1.14,1.14,0,0,0-.48-1,42.06,42.06,0,0,0-8.08-5A44.17,44.17,0,0,0,386,166.91c-.54.1-.77.26-.77.88q0,22.56,0,45.12c0,.22,0,.44,0,.69C398.93,211.13,411.11,214.31,422.17,222.54Zm1.55,0c11.06-8.23,23.24-11.4,36.84-8.94,0-.26,0-.51,0-.76q0-22.49,0-45c0-.63-.2-.82-.78-.93a44.15,44.15,0,0,0-18.17.35,44.61,44.61,0,0,0-17.44,8.28,1.13,1.13,0,0,0-.52,1q0,22.68,0,45.36Zm38.43-7a43,43,0,0,0-16.23-.84c-5.23.77-13.69,3.71-15.25,5.25,11.23-3.42,22.2-2.42,33.09,1.66v-.86q0-6.28,0-12.58,0-12.22,0-24.46,0-4.29,0-8.6c0-.2-.08-.51-.22-.58a12.23,12.23,0,0,0-1.41-.57Zm-78.41,0V174a9.37,9.37,0,0,1-.89.31c-.61.14-.78.48-.77,1.12,0,6,0,11.89,0,17.84l0,27.44v.92c10.91-4.1,21.88-5.08,33.07-1.74a43.08,43.08,0,0,0-31.46-4.34Z"/><path class="cls-8" d="M422.17,222.54c-11.06-8.23-23.24-11.4-36.84-8.94,0-.24,0-.46,0-.69q0-22.56,0-45.12c0-.61.23-.78.77-.88a44.25,44.25,0,0,1,27.58,3.65,42,42,0,0,1,8.08,5,1.14,1.14,0,0,1,.48,1q0,22.59,0,45.18Z"/><path class="cls-8" d="M423.72,222.54v-.68q0-22.68,0-45.36a1.13,1.13,0,0,1,.52-1,44.75,44.75,0,0,1,17.44-8.28,44.15,44.15,0,0,1,18.17-.35c.58.11.78.3.78.93q0,22.5,0,45c0,.25,0,.5,0,.76C447,211.13,434.78,214.31,423.72,222.54Z"/><path class="cls-8" d="M462.15,215.53V174a12.23,12.23,0,0,1,1.41.57c.14.07.22.38.22.58,0,2.87,0,5.73,0,8.6q0,12.22,0,24.46,0,6.28,0,12.58v.85c-10.89-4.09-21.86-5.09-33.09-1.67,1.56-1.54,10-4.47,15.25-5.24A42.78,42.78,0,0,1,462.15,215.53Z"/><path class="cls-8" d="M383.74,215.53a43.05,43.05,0,0,1,31.45,4.34c-11.19-3.34-22.16-2.36-33.07,1.74v-.92l0-27.44q0-8.92,0-17.84c0-.64.17-1,.77-1.12a8.49,8.49,0,0,0,.89-.31Z"/><path class="cls-1" d="M236.13,626.76a14,14,0,0,1-3.84-5.65c0-1.13,1.56-3.47,3.35-5.35a1,1,0,0,1,1.16,1c-1.14,2.34-1.65,6.69.77,9,2.1,2,4.41,1.52,5.72.14,2.13-2.24,1.23-5.62.32-8.08-1.11-2.95-1.78-6.74.83-9.48,2.94-3.14,7.5-2.91,11.62,1a16.28,16.28,0,0,1,2.82,3.53,9.82,9.82,0,0,0,.76,1.14,18,18,0,0,1-3.25,4.44c-.46.2-1.19-.46-1.19-1,.86-1.86,1.55-5.05-.5-7-1.87-1.79-4-1.57-5.34-.2s-1.15,3.55-.4,5.62l1,2.75c.89,2.59,1.61,6.34-1.28,9.37C245.4,631.38,240.43,630.85,236.13,626.76Z"/><path class="cls-1" d="M262,623c2.17-2.81,2.12-3.14.93-4.49l-.66-.75c-.11-.37.37-1.06.85-1,1.45,1.22,3,2.44,4.48,3.59s3.07,2.32,4.61,3.41a1,1,0,0,1-.8,1l-.84-.45c-1.59-.84-2-.74-4.12,2.07l-5.37,7c-2.73,3.54-5.32,7.75-.6,11.39,4,3.07,7.8.63,11-3.51l2.82-3.66c1.88-2.44,3.53-4.83,3.79-5.88.2-.85-.34-1.56-1.06-2.36l-.72-.8a1.09,1.09,0,0,1,.79-1c1.64,1.35,2.83,2.32,4.1,3.3s2.33,1.75,3.56,2.59a1.12,1.12,0,0,1-.79,1l-.66-.32c-.95-.44-1.68-.71-2.45-.29-.94.52-2.84,2.72-4.72,5.16l-2.61,3.39c-2.19,2.83-4.47,5.21-7.6,5.74-2.46.36-5.32-.63-7.84-2.58-2.36-1.82-4.2-3.81-4.86-6.44s.42-5.31,3-8.6Z"/><path class="cls-1" d="M285.38,635.7c-.12-.42.34-1.21.77-1.1,1.12.74,2.57,1.61,4.24,2.57,1.12.65,2.11,1.21,3.39,1.82-1.17,2-1.14,4.75-1.42,8.72l-.43,5.95c-.07.84,0,3.63,0,4.73.9-.54,2-1.25,4.07-2.68l3.83-2.64a47,47,0,0,0,7.83-6.14,36.31,36.31,0,0,0,3.31,2c1.13.64,2.72,1.51,4,2.15.26.41-.1,1-.57,1.21l-1.08-.4c-1.53-.56-2.44-.56-3.45,1.2-3.91,6.81-5.89,10.42-8.07,14.7-.81,1.57-1.13,2.44.11,3.36l1,.76c.12.42-.32,1.19-.73,1.12-1.53-1-3-1.84-4.65-2.8s-3.42-1.92-5.1-2.79a.86.86,0,0,1,.56-1.22l1.1.45c1.68.71,1.91.31,3.07-1.71l4.87-8.63,2.16-3.77-.07,0c-5.56,3.84-11.45,7.8-16.92,12.09a1.21,1.21,0,0,1-.81-.16,2,2,0,0,1-.77-.7c1-4.86,1.54-15.47,2.09-20.87l-.06,0c-1.37,2.08-2.24,3.51-3.26,5.21-1.27,2.13-3.2,5.42-4.34,7.4-.95,1.66-1,2.23.24,3.22l1.21,1a1.06,1.06,0,0,1-.73,1.12c-1.22-.8-2.67-1.67-4-2.41-1.1-.63-2.41-1.34-3.81-2-.37-.39.12-1.25.53-1.24l.67.25c1.91.7,2.23.62,3.6-1.31,1.11-1.52,2.86-4.34,4.87-7.37,1.4-2.13,3-4.77,4-6.57s.61-2.81-.62-3.82Z"/><path class="cls-1" d="M316.47,653.32c-.18-.4.16-1.26.6-1.2,1.22.56,2.77,1.21,4.57,1.91,1.21.48,2.27.89,3.62,1.3-.86,2.2-.42,4.87-.12,8.83l.46,6c0,.84.49,3.59.65,4.68.81-.67,1.83-1.54,3.64-3.25l3.38-3.17a46.64,46.64,0,0,0,6.84-7.24,36.32,36.32,0,0,0,3.58,1.53c1.21.47,2.91,1.09,4.25,1.54.33.37.06,1-.37,1.28l-1.13-.23c-1.59-.34-2.5-.2-3.23,1.68-2.87,7.31-4.29,11.18-5.83,15.74-.56,1.66-.75,2.57.6,3.3l1.12.6c.18.4-.14,1.22-.56,1.22-1.66-.73-3.22-1.39-5-2.09-1.64-.64-3.67-1.39-5.46-2a.86.86,0,0,1,.38-1.29l1.15.29c1.77.45,1.94,0,2.79-2.14l3.54-9.26,1.59-4-.07,0c-4.93,4.62-10.18,9.41-14.94,14.46a1.24,1.24,0,0,1-.83,0,2.09,2.09,0,0,1-.87-.58c.3-5-.76-15.53-1-20.95l-.07,0c-1.05,2.25-1.7,3.8-2.46,5.63-.93,2.3-2.36,5.83-3.19,8-.7,1.77-.68,2.35.71,3.14l1.34.77a1.05,1.05,0,0,1-.56,1.21c-1.33-.59-2.89-1.25-4.28-1.79-1.17-.45-2.57-1-4.06-1.47-.42-.32-.06-1.25.34-1.3l.7.16c2,.41,2.29.28,3.38-1.84.87-1.66,2.19-4.71,3.72-8,1.08-2.32,2.28-5.17,3-7.08s.2-2.87-1.17-3.7Z"/><path class="cls-1" d="M352.82,682.4c-.91-.23-1-.22-1.44.43l-2.57,3.9a4.09,4.09,0,0,0-.6,1.26c-.06.23.38.57,1.39,1l1.1.47c.16.32,0,1.2-.4,1.28-1.31-.41-2.68-.76-4.27-1.2-1.3-.32-2.19-.43-4-.88-.36-.33-.12-1.09.22-1.32l1,.15a2.68,2.68,0,0,0,2.79-1.26c1-1.31,2.19-2.91,3.9-5.31l5.75-8.14c1.46-2.1,2.44-3.23,2.6-4.33a7.9,7.9,0,0,0,3.87-1.38c.5.12.68.36.69,1,0,1.15.14,2.63.43,5.5l1.51,15.8c.24,2.42.37,3.35,1.72,3.93l1.4.6c.18.24,0,1.15-.37,1.28-1.81-.53-3.86-1.09-5.84-1.59s-3.4-.82-5.17-1.19a.86.86,0,0,1,.25-1.32l1.27.13c.91.07,1.13-.15,1.19-.37a15.48,15.48,0,0,0-.09-2.7l-.22-3.44c0-.64-.33-.79-1.66-1.12Zm4.84-.86c.88.23,1.1.16,1-.87l-.24-3.25c-.13-1.72-.31-3.89-.45-4.76-.52.78-1.79,2.58-2.79,4.14l-1.65,2.53c-.6.91-.44,1.07.52,1.31Z"/><path class="cls-1" d="M397.82,689.59c-2.49,4.38-3.84,7.25-5,9.28a2.74,2.74,0,0,1-1.39.15,1.66,1.66,0,0,1-1-.42c-.32-1.07-.76-3.15-1.17-4.5L384.62,678c-1.08-3.8-1.27-3.9-2.49-4.34l-1.52-.55a1,1,0,0,1,.3-1.27c2,.25,3.27.47,5.3.69,1.79.2,3.48.34,5.87.53.29.26.17,1-.1,1.29l-1.2.1c-.71.08-1,.27-1,.61a31.06,31.06,0,0,0,1.11,4.34l2.5,8.91,1,3.32c.38-.61,1.14-1.83,1.74-2.91l1.87-3.41c1.24-2.28,3.38-6.34,4-7.58a4.76,4.76,0,0,0,.54-1.32c0-.26-.27-.45-1.18-.78l-1.22-.4c-.28-.34-.2-1.13.3-1.27,1.82.27,3.31.47,4.79.64,1.33.14,2.5.23,3.65.28.29.18.23,1.1-.07,1.3l-1,.07a3,3,0,0,0-2.41,1,44.06,44.06,0,0,0-3.86,6.1Z"/><path class="cls-1" d="M417.11,684.74c0,1.07,0,1.15,1.08,1.16l2.71,0c2,0,2.52-.22,2.94-2.05l.21-.95c.28-.3,1.26-.28,1.45.06-.09,1.22-.15,2.59-.18,4s0,2.82.06,4a1.16,1.16,0,0,1-1.46,0l-.18-1c-.36-1.84-.83-2.15-2.87-2.19l-2.71-.05c-1.06,0-1.1,0-1.12,1.17l-.07,4.53c0,1.76.11,3,.57,3.64s1.24,1,4.11,1c3.42.06,4.75,0,7-4.31a1,1,0,0,1,1.45.21,21.65,21.65,0,0,1-1.74,6.08c-2.08-.11-5.85-.2-9.08-.26l-5.1-.08c-1.89,0-3.82,0-6.77,0a1.07,1.07,0,0,1,0-1.34l1.85-.23c1.77-.24,2-.47,2.07-4l.22-14.22c.05-3.47-.18-3.7-1.94-4.08l-1-.2a.93.93,0,0,1,.1-1.33c1.84.11,3.77.17,5.65.2l8.33.13c2.52,0,4.76,0,5.27,0,0,.61.26,3.36.42,5.92-.16.42-1.07.48-1.46.13a8.78,8.78,0,0,0-1.44-3,5.3,5.3,0,0,0-3.83-1.24l-3.15,0c-1.29,0-1.29.06-1.32,1.47Z"/><path class="cls-1" d="M435.71,680.79c-.35-3.8-.46-4.21-2.12-4.29l-1.08-.06a.85.85,0,0,1,0-1.33c2.92-.46,6-.89,9.68-1.22,3.32-.3,6.22-.07,7.79.67a6.22,6.22,0,0,1,3.95,5.31c.31,3.39-1.91,5-3.63,6.07-.37.23-.35.46-.12.85,3,4.86,4.9,7.57,6.92,9a4.89,4.89,0,0,0,2.72.83.71.71,0,0,1,.25,1,9.83,9.83,0,0,1-3.07.62c-3.59.33-6-.72-8-3.3a47.58,47.58,0,0,1-3.58-5.61,2,2,0,0,0-2.19-1.14c-1.37.12-1.44.2-1.37,1l.42,4.68c.31,3.49.57,3.73,2.36,3.88l1.08.09a1.19,1.19,0,0,1,.12,1.33c-2.09.11-3.89.24-5.78.4s-3.67.37-5.7.63a1.08,1.08,0,0,1-.12-1.33l1-.28c1.74-.47,2-.75,1.63-4.25Zm5.8,4.33c.11,1.33.24,1.44,2.55,1.23a3.85,3.85,0,0,0,2.88-1.33,5.46,5.46,0,0,0,1-4.23c-.31-3.42-2.59-5.43-5.64-5.16-1.6.15-1.67.27-1.5,2.09Z"/><path class="cls-1" d="M470.4,689.94c.63,3.53.91,3.75,2.74,3.74h1.12a1.06,1.06,0,0,1,.19,1.32c-2.1.29-4,.6-5.82.91s-3.78.71-5.86,1.15a1.05,1.05,0,0,1-.23-1.31l1-.38c1.72-.62,1.91-.92,1.29-4.45l-2.44-13.82c-.62-3.52-.9-3.75-2.73-3.73h-1.12a1.07,1.07,0,0,1-.23-1.32c2.1-.29,4-.59,5.9-.92s3.74-.7,5.82-1.15a1.07,1.07,0,0,1,.23,1.32l-1.05.38c-1.72.61-1.91.91-1.29,4.44Z"/><path class="cls-1" d="M482.29,670.2c-.24-.89-.28-1.07-1.19-.83l-2.36.62c-2.77.74-3.18,2.42-3.61,5.41a1.12,1.12,0,0,1-1.49,0,47,47,0,0,0-.4-6.6,1,1,0,0,1,1.05-.32c.36.58.51.69,3.4-.07l14.13-3.74c2.51-.66,3.07-.85,3.21-1.71a1,1,0,0,1,.46-.25.85.85,0,0,1,.64.11,26.2,26.2,0,0,0,1.11,6.49c-.11.38-1.11.73-1.38.49-1.27-2.19-2.26-3.79-5.11-3l-2.28.6c-.91.24-1,.38-.74,1.34L492,685c.91,3.43,1.21,3.66,3,3.43l1.57-.21a1.18,1.18,0,0,1,.34,1.29c-2.49.57-4.4,1-6.11,1.49s-3.78,1-6.43,1.82a1.06,1.06,0,0,1-.34-1.29l1.66-.63c1.66-.64,1.79-1,.9-4.46Z"/><path class="cls-1" d="M507.07,677.07c-.89.32-1,.4-1,1.16l.08,4.68a4,4,0,0,0,.22,1.38c.07.22.63.26,1.73.06l1.17-.23c.32.17.69,1,.39,1.28-1.32.4-2.65.89-4.21,1.42-1.25.46-2.07.88-3.76,1.5-.49-.07-.72-.83-.57-1.21l1-.47a2.71,2.71,0,0,0,1.59-2.62c.1-1.66.17-3.63.23-6.58l.16-10c0-2.57.19-4.05-.3-5.05a7.91,7.91,0,0,0,2.42-3.32c.48-.18.77-.08,1.11.39.68.93,1.6,2.1,3.46,4.3L520.94,676c1.56,1.86,2.19,2.57,3.64,2.28l1.48-.3c.29.1.67.93.42,1.27-1.79.58-3.8,1.27-5.72,2s-3.27,1.24-4.94,1.93a.84.84,0,0,1-.54-1.22l1.12-.62c.8-.45.85-.75.77-1a15.7,15.7,0,0,0-1.59-2.18l-2.12-2.71c-.4-.51-.72-.47-2,0Zm3.51-3.44c.85-.31,1-.48.36-1.31l-2-2.55c-1.07-1.35-2.45-3-3.05-3.67,0,.93,0,3.14,0,5l.06,3c0,1.09.25,1.13,1.17.8Z"/><path class="cls-1" d="M524.9,655.09c-.4-.82-.47-1-1.32-.59l-2.19,1c-2.59,1.23-2.68,3-2.55,6a1.13,1.13,0,0,1-1.46.32,46,46,0,0,0-1.62-6.41,1,1,0,0,1,.42-.41.91.91,0,0,1,.56-.1c.46.5.63.6,3.32-.7l13.2-6.28c2.34-1.12,2.86-1.4,2.83-2.28a1,1,0,0,1,.42-.33.83.83,0,0,1,.64,0,25.77,25.77,0,0,0,2.29,6.17c0,.4-1,.92-1.26.73-1.65-1.91-2.92-3.3-5.58-2l-2.12,1c-.86.39-.91.56-.49,1.45l7.24,15.18c1.52,3.2,1.87,3.38,3.56,2.82l1.5-.5a1.2,1.2,0,0,1,.58,1.2c-2.34,1-4.13,1.84-5.73,2.6s-3.53,1.73-6,3a1.06,1.06,0,0,1-.58-1.2l1.52-.94c1.51-.93,1.58-1.34,0-4.54Z"/><path class="cls-1" d="M544.25,648.32c-1.88-3-2.2-3.08-3.88-2.43l-.94.36a.91.91,0,0,1-.62-1.15c1.64-.93,3.33-1.94,4.93-2.94s3.24-2.07,4.8-3.14a1,1,0,0,1,.69,1.1l-.72.63c-1.34,1.2-1.38,1.58.5,4.58l4.67,7.47c2.37,3.78,5.41,7.68,10.47,4.51,4.27-2.66,3.3-7.1.53-11.53l-2.44-3.91c-1.64-2.62-3.31-5-4.2-5.6-.73-.49-1.58-.23-2.59.17l-1,.4a1.12,1.12,0,0,1-.69-1.1c1.84-1.06,3.16-1.84,4.52-2.69s2.45-1.58,3.67-2.43a1.1,1.1,0,0,1,.69,1.1l-.52.5c-.74.73-1.25,1.33-1.13,2.19.16,1.07,1.56,3.61,3.2,6.23l2.26,3.62c1.9,3,3.34,6,2.74,9.12-.51,2.44-2.44,4.77-5.14,6.46-2.53,1.58-5,2.61-7.73,2.31s-4.83-2.24-7-5.77Z"/><path class="cls-1" d="M564.29,630.8c-.44,0-1-.74-.76-1.1,1.07-.8,2.38-1.85,3.87-3.08,1-.83,1.87-1.56,2.89-2.56,1.51,1.82,4.06,2.73,7.68,4.38l5.43,2.47c.76.36,3.39,1.3,4.42,1.68-.2-1-.47-2.34-1.09-4.74l-1.15-4.51a46.22,46.22,0,0,0-3-9.48,35.65,35.65,0,0,0,3.07-2.4c1-.83,2.36-2,3.4-3,.48-.1.94.46.94.95l-.75.88c-1.07,1.23-1.38,2.09-.09,3.64,5,6,7.73,9.15,11,12.69,1.19,1.3,1.89,1.9,3.19,1.06l1.06-.68c.44,0,1,.7.8,1.07-1.44,1.1-2.76,2.15-4.24,3.39s-3,2.54-4.4,3.81c-.48.15-1.07-.5-.94-.95l.8-.88c1.25-1.33,1-1.68-.53-3.47l-6.41-7.56-2.78-3.34-.06,0c1.67,6.55,3.33,13.45,5.46,20.06a1.27,1.27,0,0,1-.44.71,2,2,0,0,1-.93.48c-4.2-2.65-14-6.82-18.83-9.22l-.06.05c1.46,2,2.51,3.32,3.75,4.86,1.55,1.93,4,4.89,5.43,6.64,1.22,1.47,1.74,1.73,3.1.9l1.32-.8a1.08,1.08,0,0,1,.8,1.08c-1.17.87-2.49,1.92-3.64,2.88-1,.8-2.09,1.79-3.25,2.85-.49.21-1.12-.55-1-.92l.47-.54c1.32-1.55,1.35-1.88,0-3.84-1-1.56-3.08-4.18-5.21-7.12-1.52-2.07-3.44-4.49-4.75-6.07s-2.42-1.56-3.8-.76Z"/><circle class="cls-9" cx="425.19" cy="423.16" r="290.2"/><polygon class="cls-1" points="403.85 143.8 403.84 143.8 403.85 143.8 403.85 143.8"/><polygon class="cls-1" points="452.48 157.44 452.48 157.44 452.48 157.44 452.48 157.44"/><path class="cls-10" d="M103.76,399.92a47.1,47.1,0,0,0-4.49-10c-1.83-3.26-3.64-6.53-4.18-10.31a10.22,10.22,0,0,1,.85-6.3,34.39,34.39,0,0,1,5.17-6.77c1.18-1.33,2.37-2.65,3.55-4l-.09-.13h0a2.32,2.32,0,0,0-.37.13s-6.77,2.06-8.72,3.74a1.78,1.78,0,0,0-.81-2.29h0a3,3,0,0,0-.36-.18,3.71,3.71,0,0,0-1.09-.22,2.17,2.17,0,0,0-.36,0,27.32,27.32,0,0,0-4.14.82,22.66,22.66,0,0,0-10.36,7.31c-.85,1-1.62,2-2.42,3.06l.17.18h0A22.43,22.43,0,0,1,85,369.32a3.42,3.42,0,0,1-.51.69,10.86,10.86,0,0,0-2.67,5.05,22.71,22.71,0,0,0,.38,11.43,69,69,0,0,1,2.18,10.81h0l.07.57h0l0,.45h0c0,.1,0,.22,0,.32l.13,1.1h0c1,9.95.72,24.27-5.61,38.52a30.39,30.39,0,0,0-5.25,13.33,17,17,0,0,0,1.86,10.35c.53.95,1.22,1.81,1.83,2.71v0l0,0c-.06-1.62-.38-3.11-.5-4.62a32.65,32.65,0,0,1-.06-4.64,7.72,7.72,0,0,1,1.35-4.18c.26,2.29.42,4.52.77,6.72a17,17,0,0,0,4.19,8.83A15.59,15.59,0,0,0,89.72,471h0a3.24,3.24,0,0,0-.65-.63c-7-5.69-9.48-14-6.6-22.42A36.79,36.79,0,0,1,91,434.42c2.69-2.8,5.46-5.54,7.87-8.56C105.06,418.12,106.46,409.4,103.76,399.92Z"/><path class="cls-11" d="M53.43,384a23,23,0,0,1,11.24,3.48A88.1,88.1,0,0,1,78.1,397.58a21,21,0,0,0,7.12,4.47,6.73,6.73,0,0,0,6.69-1,10,10,0,0,0,3.21-4.9c-3.19,2.36-5.22,2.3-8.6.08a17.39,17.39,0,0,1-2.31-1.79c-2.4-2.23-4.72-4.55-7.15-6.74a41.57,41.57,0,0,0-14.69-9,23.21,23.21,0,0,0-15.81.23,28.69,28.69,0,0,0-9.33,5.92,37.46,37.46,0,0,0-7.93,10.24l.34-.23c5.11-3.72,10.26-7.38,16.27-9.58A20.57,20.57,0,0,1,53.43,384Z"/><path class="cls-12" d="M96.46,401.6a5.82,5.82,0,0,1-2.19,3.63,10,10,0,0,1-8.87,1.4,28.36,28.36,0,0,1-9.79-5.31c-3.59-2.79-7.07-5.71-10.6-8.58A16.36,16.36,0,0,0,57.18,389a21.82,21.82,0,0,0-11.25,1.35c-1.49.56-3,1.22-4.42,1.83a1.3,1.3,0,0,0,.78,0,38.11,38.11,0,0,1,4.55-.9A17.5,17.5,0,0,1,59.53,395c3.36,2.69,6.6,5.54,9.82,8.41S75.89,409,80,410.61s8.17,2.29,12.35.28A7.64,7.64,0,0,0,96.46,401.6Z"/><path class="cls-13" d="M78.35,434.11C69.16,437,66.24,446.68,70.88,455,70,446.8,72.69,440,78.35,434.11Z"/><path class="cls-14" d="M93.61,465.27c-5.4-6.22-7-13.37-5.69-21.42C82,451.41,85.08,461.07,93.61,465.27Z"/><path class="cls-15" d="M65.83,407.26l0,0-3.92-3.46-3.21-2.61a20.35,20.35,0,0,0-3.49-2.32c-1.65-.71-8.36-3.25-12.21.77l-.14.05a17,17,0,0,1,10.35,3.72c3.36,2.7,6.6,5.55,9.82,8.42s6.54,5.64,10.64,7.23c4.41,1.28,7.46-2.38,7.46-2.38C76.07,417,65.83,407.26,65.83,407.26Z"/><path class="cls-16" d="M745.79,399.92a47.1,47.1,0,0,1,4.49-10c1.84-3.26,3.65-6.53,4.18-10.31a10.14,10.14,0,0,0-.84-6.3,34.06,34.06,0,0,0-5.18-6.77l-3.54-4,.09-.13h0l.38.13s6.76,2.06,8.71,3.74a1.8,1.8,0,0,1,.81-2.29h0a2.31,2.31,0,0,1,.35-.18,3.71,3.71,0,0,1,1.1-.22,2.17,2.17,0,0,1,.36,0,27.19,27.19,0,0,1,4.13.82,22.69,22.69,0,0,1,10.37,7.31c.84,1,1.61,2,2.42,3.06l-.18.18h0a22.47,22.47,0,0,0-8.9-5.64,3.47,3.47,0,0,0,.52.69,10.86,10.86,0,0,1,2.67,5.05,22.71,22.71,0,0,1-.38,11.43,69.58,69.58,0,0,0-2.19,10.81h0l-.07.57h0l-.05.45h0l0,.32-.13,1.1h0c-1,9.95-.72,24.27,5.61,38.52a30.27,30.27,0,0,1,5.25,13.33,17,17,0,0,1-1.86,10.35c-.52.95-1.21,1.81-1.82,2.71v0l0,0c.07-1.62.38-3.11.51-4.62a35.91,35.91,0,0,0,.06-4.64,7.65,7.65,0,0,0-1.36-4.18c-.25,2.29-.42,4.52-.77,6.72a16.84,16.84,0,0,1-4.19,8.83,15.56,15.56,0,0,1-6.47,4.23h0a3.18,3.18,0,0,1,.64-.63c7-5.69,9.49-14,6.6-22.42a36.54,36.54,0,0,0-8.54-13.52c-2.68-2.8-5.45-5.54-7.86-8.56C744.5,418.12,743.09,409.4,745.79,399.92Z"/><path class="cls-17" d="M796.12,384a23.07,23.07,0,0,0-11.24,3.48,88.6,88.6,0,0,0-13.43,10.09,20.92,20.92,0,0,1-7.11,4.47,6.73,6.73,0,0,1-6.69-1,10,10,0,0,1-3.22-4.9c3.19,2.36,5.22,2.3,8.6.08a17.39,17.39,0,0,0,2.31-1.79c2.41-2.23,4.72-4.55,7.16-6.74a41.44,41.44,0,0,1,14.68-9A23.21,23.21,0,0,1,803,379a28.59,28.59,0,0,1,9.33,5.92,37.34,37.34,0,0,1,7.94,10.25l-.35-.23c-5.11-3.72-10.25-7.38-16.27-9.58A20.51,20.51,0,0,0,796.12,384Z"/><path class="cls-18" d="M753.1,401.6a5.74,5.74,0,0,0,2.19,3.63,10,10,0,0,0,8.86,1.4,28.31,28.31,0,0,0,9.8-5.31c3.58-2.79,7.07-5.71,10.59-8.58a16.35,16.35,0,0,1,7.84-3.76,21.83,21.83,0,0,1,11.25,1.35c1.49.56,2.94,1.22,4.41,1.83a1.27,1.27,0,0,1-.77,0,38.27,38.27,0,0,0-4.56-.9A17.51,17.51,0,0,0,790,395c-3.36,2.69-6.6,5.54-9.81,8.41s-6.54,5.64-10.65,7.23-8.17,2.29-12.35.28C753.9,409.29,751.73,405.37,753.1,401.6Z"/><path class="cls-19" d="M771.21,434.11c9.19,2.85,12.11,12.57,7.47,20.88C779.59,446.8,776.86,440,771.21,434.11Z"/><path class="cls-20" d="M755.94,465.27c5.41-6.22,7-13.37,5.7-21.42C767.59,451.41,764.48,461.07,755.94,465.27Z"/><path class="cls-21" d="M783.72,407.26l0,0,3.92-3.46,3.21-2.61a20.35,20.35,0,0,1,3.49-2.32c1.66-.71,8.36-3.25,12.21.77l.15.05a17,17,0,0,0-10.36,3.72c-3.37,2.7-6.61,5.55-9.82,8.42S780,417.45,775.85,419c-4.4,1.28-7.46-2.38-7.46-2.38C773.48,417,783.72,407.26,783.72,407.26Z"/></g></g><path class="cls-22" d="M865.74,190.8c-1-1-.83-3.3.49-4,4.46.33,11.88.49,17,.49,4.62,0,13-.16,18.81-.49,1.48.49,1.32,2.8.33,4l-3.8.33c-3.46.33-5.44,1.32-5.44,2.8,0,2,3.46,10.4,8.58,22.11,9.24,20.63,19,41.25,28.54,61.55,4-8.25,8.41-17.49,12.7-26.73,1.49-3.14,2.64-5.94,2.64-6.77a14.19,14.19,0,0,0-1.32-4.29c-5.77-13.2-11.88-26.4-18.14-39.6-2.48-5.11-5-8.58-10.56-9.07l-4-.33c-1.16-1.32-1-3.3.33-4,4.78.33,11,.49,17.65.49,8.25,0,14.35-.16,18.15-.49,1.15.49,1.32,2.64.33,4l-4.29.33c-6.44.49-6.6,1.65-3.47,9.07,3.47,8.09,8.09,18.48,12.71,28.71,3.13-6.43,6.1-12.7,9.73-21.61,5.94-14,5.12-15.84-.16-16.17l-5-.33c-1.16-1.65-.83-3.47.33-4,4.45.33,9.4.49,15.51.49,5.44,0,12-.16,15.84-.49,1.15.49,1.32,2.64.33,4l-4.79.33c-6.93.49-9.9,7.92-13.53,14.68-3.46,6.11-10.39,20.46-12.87,26.24a13.56,13.56,0,0,0-1.48,4,12.61,12.61,0,0,0,1.15,4c5.61,12.7,11.39,25.08,16.83,37.62,5.12-11.55,10.07-23.1,14.85-34.82,3.3-7.92,12.05-29.86,13.2-32.83,2.15-5.94,5-13,5-15,0-2.31-2-3.63-5.44-3.79l-4.79-.33c-1.32-1.49-1.15-3.3.17-4,6.27.33,10.72.49,15.84.49,6.27,0,11-.16,15.34-.49,1.32.49,1.49,2.64.33,4l-3.13.33c-8.25.82-9.74,5.77-19.64,28.71l-12,27.88c-7.26,16.83-13.86,33-20.63,50.65a3.5,3.5,0,0,1-2,.5,5.29,5.29,0,0,1-2.31-.5c-5.28-14.68-14.85-35.3-20-46.85-5.94,12-15.84,33.16-20.63,46.85a3.5,3.5,0,0,1-2,.5,6.6,6.6,0,0,1-2.47-.5c-2.81-6.93-9.24-21.78-11.38-26.56-10.56-22.93-20.79-45.87-31.52-68.8-3.13-6.77-5.11-11.22-12-11.88Z"/><path class="cls-22" d="M1079.41,258c-1.16-3.63-1.82-4.12-6.77-4.12h-24.91c-4.12,0-5.11.49-6.27,4l-5.77,17.32c-2.48,7.43-3.63,11.88-3.63,13.69,0,2,.82,3,4.78,3.3l5.45.5c1.15.82,1.15,3.46-.33,4.12-4.29-.33-9.41-.33-17.16-.49-5.45,0-11.39.33-15.84.49-1-.66-1.32-3.3-.33-4.12l5.44-.5c4-.33,7.59-2.14,9.9-8.08,3-7.59,7.59-18.31,14.52-36.79l16.83-44.55c2.31-5.94,3.3-9.08,2.8-11.72,4-1.15,6.77-4.12,8.58-6.27a2.34,2.34,0,0,1,2.48,1.49c2.14,7.26,4.78,14.85,7.26,22.11l22.6,66.33c4.79,14.18,6.93,16.66,14,17.48l4.45.5c1.16.82.83,3.46,0,4.12-6.76-.33-12.54-.49-20-.49-7.92,0-14.19.33-19,.49-1.32-.66-1.48-3.3-.33-4.12l4.79-.5c3.46-.33,5.77-1.32,5.77-3,0-1.81-.82-4.78-2.14-8.74Zm-32.67-14.68c-1.32,3.79-1.16,4,3.47,4h20.29c4.78,0,5.11-.66,3.63-5.12l-8.91-26.89a108.68,108.68,0,0,0-3.8-10.4h-.33a104.42,104.42,0,0,0-4,9.74Z"/><path class="cls-22" d="M1152,298.87c-13.86,0-22.61-4.29-25.74-6.11-2-3.63-4.13-15.34-4.46-23.09.83-1.16,3.3-1.49,4-.5,2.48,8.42,9.24,24.58,28.38,24.58,13.86,0,20.63-9.07,20.63-19,0-7.26-1.49-15.34-13.53-23.1l-15.68-10.23c-8.25-5.44-17.82-14.85-17.82-28.38,0-15.67,12.21-28.38,33.66-28.38a63.53,63.53,0,0,1,15.35,2.15,22.11,22.11,0,0,0,5.77,1c1.49,4,3,13.2,3,20.13-.66,1-3.3,1.48-4.12.49-2.15-7.92-6.6-18.64-22.44-18.64-16.17,0-19.64,10.72-19.64,18.31,0,9.57,7.92,16.5,14,20.3l13.2,8.25c10.39,6.43,20.62,16,20.62,31.68C1187.15,286.5,1173.46,298.87,1152,298.87Z"/><path class="cls-22" d="M1238.63,242.94c-7.92,0-8.25.33-8.25,5.28v23.26c0,17.32.83,19.63,10.07,20.62l4.78.5c1,.66.66,3.63-.33,4.12-8.91-.33-14.52-.49-21-.49-7.1,0-12.71.33-19.14.49-1-.49-1.32-3.13-.33-4.12l2.8-.5c9.24-1.65,9.57-3.3,9.57-20.62v-59.4c0-17.32-1.15-20.13-9.73-20.79l-4.29-.33c-1-.66-.66-3.63.33-4.12,8.08.16,13.69.49,20.79.49,6.43,0,12-.16,19.14-.49,1,.49,1.32,3.46.33,4.12l-3.14.33c-9.57,1-9.9,3.47-9.9,20.79v19c0,5.11.33,5.28,8.25,5.28h47.19c7.92,0,8.25-.17,8.25-5.28v-19c0-17.32-.33-19.8-10.07-20.79l-3.13-.33c-1-.66-.66-3.63.33-4.12,7.59.33,13.2.49,20,.49,6.44,0,12-.16,19.47-.49,1,.49,1.32,3.46.33,4.12l-3.46.33c-9.57,1-9.9,3.47-9.9,20.79v59.4c0,17.32.33,19.47,9.9,20.62l4,.5c1,.66.66,3.63-.33,4.12-7.92-.33-13.53-.49-20-.49-6.76,0-12.7.16-20,.49-1-.49-1.32-3.13-.33-4.12l3.13-.5c10.07-1.65,10.07-3.3,10.07-20.62V248.22c0-4.95-.33-5.28-8.25-5.28Z"/><path class="cls-22" d="M1349.84,212.41c0-17.49-.33-20.29-10.06-21.12l-4.13-.33c-1-.66-.66-3.63.33-4.12,8.25.33,13.86.49,20.79.49,6.6,0,12.21-.16,20.46-.49,1,.49,1.32,3.46.33,4.12l-4.12.33c-9.74.83-10.07,3.63-10.07,21.12v58.74c0,17.49.33,19.8,10.07,21l4.12.5c1,.66.66,3.63-.33,4.12-8.25-.33-13.86-.49-20.46-.49-6.93,0-12.54.16-20.79.49-1-.49-1.32-3.13-.33-4.12l4.13-.5c9.73-1.15,10.06-3.46,10.06-21Z"/><path class="cls-22" d="M1494.38,268.18c0,4.95,0,24.58.49,28.87-.33,1-1.32,1.82-3.13,1.82-2-2.81-6.77-8.58-21.12-24.91l-38.28-43.56c-4.45-5.12-15.67-18.65-19.14-22.28h-.33c-.66,2-.82,5.78-.82,10.73v36c0,7.75.16,29.2,3,34.15,1,1.81,4.29,2.8,8.41,3.13l5.12.5a3,3,0,0,1-.33,4.12c-7.43-.33-13.2-.49-19.31-.49-6.93,0-11.38.16-17.16.49a3.06,3.06,0,0,1-.33-4.12l4.46-.5c3.79-.49,6.43-1.48,7.26-3.3,2.31-5.93,2.14-26.06,2.14-34V207.13c0-4.62-.16-8.08-3.63-11.88-2.31-2.31-6.27-3.46-10.23-4l-2.8-.33c-1-1-1-3.46.33-4.12,6.93.49,15.67.49,18.64.49a53.29,53.29,0,0,0,7.59-.49c3.3,8.41,22.77,30.19,28.22,36.3l16,18c11.38,12.71,19.47,21.95,27.22,29.87h.33c.66-.83.66-3.47.66-6.93V228.75c0-7.76-.16-29.21-3.3-34.16-1-1.48-3.63-2.47-10.23-3.3l-2.8-.33c-1.16-1-1-3.63.33-4.12,7.59.33,13.2.49,19.47.49,7.09,0,11.38-.16,17-.49,1.32.82,1.32,3.13.33,4.12l-2.31.33c-5.28.83-8.58,2.15-9.24,3.47-2.8,5.94-2.47,26.4-2.47,34Z"/><path class="cls-22" d="M1620.6,279.4c0,6.6,1,10.56,4,11.71a1.35,1.35,0,0,1-.16,2,36.81,36.81,0,0,0-8.09,1.49c-8.74,2.31-20.62,4.29-29.53,4.29-19.64,0-37.62-5.45-50.32-18.32-9.9-9.89-15.18-22.93-15.18-37.45,0-14,4.62-28.21,14.85-39.1,11-11.55,27.38-19.31,52.3-19.31a98.45,98.45,0,0,1,21,2.48c3.14.66,8.25,1.81,10.23,1.48,0,5.45,1,14,2.48,23.93-.5,1.32-3.47,1.48-4.46.49-4.62-17.82-17-23.43-33.82-23.43-32,0-46,22.77-46,47.52,0,31.68,16.34,56.59,49.5,56.59,10.23,0,16.34-2.14,18.15-4.95.83-1.15,1.65-4.12,1.65-9.4v-6.6c0-13.86-.49-14.85-10.72-16l-7.26-.83c-1.32-.66-1.16-3.63,0-4.12,4.78.33,13.86.49,23.59.49,6.44,0,12-.16,17.49-.49,1.16.66,1.32,3.13.17,4.12l-2.64.33c-6.93.83-7.1,5.45-7.1,13.86Z"/><path class="cls-22" d="M1697.66,271.48c0,17.32.33,19.8,9.9,20.62l5.28.5c1,.66.66,3.63-.33,4.12-9.41-.33-15-.49-21.62-.49s-12.37.16-22.93.49c-1-.49-1.32-3.3,0-4.12l5.94-.5c9.4-.82,10.23-3.3,10.23-20.62V197.73c0-5.12,0-5.28-5-5.28h-9.08c-7.09,0-16.17.33-20.29,4.12-4,3.63-5.61,7.26-7.43,11.39-1.32,1-3.63.16-4.28-1.16a174.12,174.12,0,0,0,6.26-24.58c.5-.33,2.64-.5,3.14,0,1,5.28,6.43,5.11,14,5.11h66.83c8.91,0,10.39-.33,12.87-4.62.82-.33,2.64-.16,3,.5-1.82,6.76-3,20.13-2.48,25.08-.66,1.32-3.46,1.32-4.29.33-.49-4.13-1.65-10.23-4.12-12.05-3.8-2.8-10.07-4.12-19.14-4.12h-11.72c-5,0-4.78.16-4.78,5.61Z"/><path class="cls-22" d="M1748.15,242.94c0-33,24.75-58.25,58.74-58.25,38.11,0,57.25,27.56,57.25,56.6,0,33.33-25.41,57.58-57.25,57.58C1770.26,298.87,1748.15,272.63,1748.15,242.94Zm99.49,3.46c0-27.22-12-56.59-43.56-56.59-17.16,0-39.43,11.71-39.43,47.85,0,24.42,11.88,56.09,44.38,56.09C1828.83,293.75,1847.64,278.91,1847.64,246.4Z"/><path class="cls-22" d="M1981.62,268.18c0,4.95,0,24.58.49,28.87-.33,1-1.32,1.82-3.13,1.82-2-2.81-6.77-8.58-21.12-24.91l-38.28-43.56c-4.45-5.12-15.67-18.65-19.14-22.28h-.33c-.66,2-.82,5.78-.82,10.73v36c0,7.75.16,29.2,3,34.15,1,1.81,4.29,2.8,8.41,3.13l5.12.5a3,3,0,0,1-.33,4.12c-7.43-.33-13.2-.49-19.31-.49-6.93,0-11.38.16-17.16.49a3.06,3.06,0,0,1-.33-4.12l4.46-.5c3.79-.49,6.43-1.48,7.26-3.3,2.31-5.93,2.14-26.06,2.14-34V207.13c0-4.62-.16-8.08-3.63-11.88-2.31-2.31-6.27-3.46-10.23-4l-2.8-.33c-1-1-1-3.46.33-4.12,6.93.49,15.67.49,18.64.49a53.29,53.29,0,0,0,7.59-.49c3.3,8.41,22.77,30.19,28.22,36.3l16,18c11.38,12.71,19.47,21.95,27.22,29.87h.33c.66-.83.66-3.47.66-6.93V228.75c0-7.76-.16-29.21-3.3-34.16-1-1.48-3.63-2.47-10.23-3.3l-2.8-.33c-1.16-1-1-3.63.33-4.12,7.59.33,13.2.49,19.47.49,7.09,0,11.38-.16,17-.49,1.32.82,1.32,3.13.33,4.12l-2.31.33c-5.28.83-8.58,2.15-9.24,3.47-2.8,5.94-2.47,26.4-2.47,34Z"/><path class="cls-22" d="M2063.3,208.78c0-11.55-.83-15-7.76-16l-3.63-.5c-1.32-.82-1.48-3.46.17-4.12,14-.83,27.38-1.32,41.41-1.32,13.86,0,25.57,1,36.3,4.95,22.27,8.08,33.49,26.89,33.49,48.67,0,21-10.06,38.94-28.87,49.17-10.73,5.77-24.26,7.92-37,7.92-10.56,0-21.12-1.32-26.89-1.32-6.93,0-12.87.16-20.63.49-1-.49-1.32-3.13-.33-4.12l3.8-.5c9.57-1.32,9.9-3.3,9.9-20.62Zm13.52,58.91c0,8.74.5,14,3.3,18,3.63,5.11,9.9,6.76,20.3,6.76,32,0,46.36-20.95,46.36-51.64,0-18.15-8.74-48.84-52-48.84-9.74,0-15,1.32-16.33,2.31s-1.66,5.12-1.66,12.54Z"/><path class="cls-22" d="M2182.26,289.46c0-5.61,4-9.73,9.24-9.73,5.61,0,9.24,4.45,9.24,9.73s-3.63,9.08-9.24,9.08A9,9,0,0,1,2182.26,289.46Z"/><path class="cls-22" d="M2240.18,198.72c12-9.41,27.38-14,44.54-14a127.67,127.67,0,0,1,29.21,4,12.23,12.23,0,0,0,4.62.66c.16,3.8,1,14.19,2.31,24.26-.83,1.15-3.3,1.32-4.46.33-2.47-11.22-9.9-24.09-33.82-24.09-25.25,0-46.69,16-46.69,50.16,0,34.65,21.94,53.78,49,53.78,21.28,0,30.69-13.86,34.48-23.59,1.16-.82,3.63-.49,4.29.66-1.15,8.58-5.44,19.47-7.92,22.6a33,33,0,0,0-5.77,1.65c-3.63,1.32-15.51,3.8-26.07,3.8-14.85,0-29-3-41.09-11.06-13.19-9.07-23.42-24.08-23.42-45.37C2219.39,224.13,2227.64,208.45,2240.18,198.72Z"/><path class="cls-22" d="M2338.35,289.46c0-5.61,4-9.73,9.24-9.73,5.61,0,9.24,4.45,9.24,9.73s-3.63,9.08-9.24,9.08A9,9,0,0,1,2338.35,289.46Z"/><path class="cls-22" d="M953.34,728.4c-21.84,0-35.62-6.76-40.56-9.62-3.12-5.72-6.5-24.18-7-36.4,1.3-1.82,5.2-2.34,6.24-.78,3.9,13.26,14.56,38.74,44.72,38.74,21.84,0,32.5-14.3,32.5-29.9,0-11.44-2.34-24.18-21.32-36.4l-24.7-16.11c-13-8.58-28.08-23.4-28.08-44.72,0-24.7,19.24-44.72,53-44.72a100.5,100.5,0,0,1,24.18,3.38,34.94,34.94,0,0,0,9.1,1.56c2.34,6.24,4.68,20.8,4.68,31.72-1,1.56-5.2,2.34-6.5.78-3.38-12.48-10.4-29.38-35.36-29.38-25.48,0-30.94,16.9-30.94,28.86,0,15.08,12.48,26,22.1,32l20.8,13c16.38,10.14,32.5,25.22,32.5,49.91C1008.72,708.9,987.14,728.4,953.34,728.4Z"/><path class="cls-22" d="M1076.58,591.65c0-27-.52-30.94-15.86-32.76l-4.16-.52c-1.56-1-1-5.72.52-6.5,11.18.52,20,.78,30.68.78h48.88c16.64,0,32,0,35.1-.78,1.56,4.42,3.12,23.14,4.16,34.58-1,1.56-5.2,2.08-6.5.52-3.9-12.22-6.24-21.32-19.76-24.7-5.46-1.3-13.78-1.56-25.22-1.56H1105.7c-7.8,0-7.8.52-7.8,10.4v52c0,7.28.78,7.28,8.58,7.28h15.08c10.92,0,19-.52,22.1-1.56s4.94-2.6,6.24-9.1l2.08-10.66c1.3-1.56,5.72-1.56,6.76.26,0,6.24-1,16.38-1,26.26,0,9.36,1,19.24,1,24.95-1,1.83-5.46,1.83-6.76.27l-2.34-10.14c-1-4.68-2.86-8.58-8.06-9.88-3.64-1-9.88-1.3-20-1.3h-15.08c-7.8,0-8.58.26-8.58,7v36.66c0,13.77.78,22.61,4.94,27,3.12,3.12,8.58,6,31.46,6,20,0,27.56-1,33.28-3.9,4.68-2.6,11.7-11.7,18.46-25.22,1.82-1.3,5.46-.52,6.5,1.82-1.82,9.1-8.32,29.12-11.7,36.14-23.4-.52-46.54-.78-69.68-.78h-23.4c-11.18,0-20,.26-35.36.78-1.56-.78-2.08-4.94-.52-6.5l8.58-.78c14.82-1.3,16.12-5.2,16.12-32.49Z"/><path class="cls-22" d="M1317.34,654.83c6,12.21,11.7,24.17,17.94,35.61h.52c7-12.22,13.52-25.73,20-39l24.44-49.66c11.7-23.66,19.24-38,19.76-49.92,8.84.78,14.3.78,19.5.78,6.5,0,15.08-.26,23.14-.78,1.56,1,1.56,5.46.26,6.5l-5.46.52c-16.38,1.56-18.46,6.5-18.2,24.7.52,27.56.78,75.66,2.86,113.09.78,13,.52,20,12.74,21.06l8.32.78c1.56,1.56,1.3,5.46-.52,6.5-10.66-.52-21.32-.78-30.68-.78-9.1,0-20.8.26-31.46.78-1.82-1.3-2.08-4.94-.52-6.5l7.54-.78c12.74-1.3,12.74-5.46,12.74-22.1l-.78-108.41H1399c-1.82,2.86-11.7,23.66-16.9,33.8l-23.14,45.5c-11.7,22.87-23.4,47.31-28.08,59.27a3,3,0,0,1-2.6,1,3.18,3.18,0,0,1-2.34-1c-4.42-13.78-16.9-39.26-22.88-52l-23.4-50.17c-5.46-12-10.92-25.48-16.64-37.44h-.52c-1,16.12-1.82,31.2-2.6,46.28-.78,15.86-1.82,39-1.82,61.09,0,19.24,1.56,23.4,11.7,24.18l9.88.78c1.82,1.56,1.56,5.72-.26,6.5-8.84-.52-19-.78-28.86-.78-8.32,0-17.68.26-26.52.78-1.56-1.3-2.08-5.2-.52-6.5l5.72-.78c10.92-1.56,14.56-3.12,16.12-21.32,1.56-17.16,2.86-31.46,4.42-57.19,1.3-21.58,2.34-43.68,2.86-58,.52-16.38-1.56-20.28-17.42-22.36l-4.16-.52c-1.3-1.56-1-5.46,1-6.5,7.8.52,14,.78,20.54.78,6,0,13,0,21.58-.78-1,10.14,5.46,26.26,13.52,42.9Z"/><path class="cls-22" d="M1507.66,592.17c0-27.56-.52-32-15.86-33.28l-6.5-.52c-1.56-1-1-5.72.52-6.5,13,.52,21.84.78,32.76.78,10.4,0,19.24-.26,32.24-.78,1.56.78,2.08,5.46.52,6.5l-6.5.52c-15.34,1.3-15.86,5.72-15.86,33.28v92.55c0,27.56.52,31.2,15.86,33l6.5.78c1.56,1,1,5.72-.52,6.5-13-.52-21.84-.78-32.24-.78-10.92,0-19.76.26-32.76.78-1.56-.78-2.08-4.94-.52-6.5l6.5-.78c15.34-1.82,15.86-5.46,15.86-33Z"/><path class="cls-22" d="M1756.47,680c0,7.8,0,38.74.78,45.5-.52,1.56-2.08,2.86-4.94,2.86-3.12-4.42-10.66-13.52-33.28-39.26l-60.31-68.63c-7-8.06-24.7-29.38-30.16-35.1H1628c-1,3.12-1.3,9.1-1.3,16.9V659c0,12.22.26,46,4.68,53.81,1.56,2.86,6.76,4.42,13.26,4.94l8.06.78c1.56,2.08,1.3,5.2-.52,6.5-11.7-.52-20.8-.78-30.42-.78-10.92,0-17.94.26-27,.78-1.82-1.3-2.08-4.94-.52-6.5l7-.78c6-.78,10.14-2.34,11.44-5.2,3.64-9.36,3.38-41.08,3.38-53.55V583.85c0-7.28-.26-12.74-5.72-18.72-3.64-3.64-9.88-5.46-16.12-6.24l-4.42-.52c-1.56-1.56-1.56-5.46.52-6.5,10.92.78,24.7.78,29.38.78a84,84,0,0,0,12-.78c5.2,13.26,35.88,47.58,44.46,57.2l25.21,28.34c18,20,30.68,34.58,42.9,47.05h.52c1-1.29,1-5.46,1-10.92V617.91c0-12.22-.26-46-5.2-53.82-1.56-2.34-5.71-3.9-16.12-5.2l-4.42-.52c-1.81-1.56-1.55-5.72.53-6.5,12,.52,20.8.78,30.67.78,11.18,0,17.94-.26,26.78-.78,2.08,1.3,2.08,4.94.52,6.5l-3.64.52c-8.32,1.3-13.52,3.38-14.56,5.46-4.42,9.36-3.9,41.6-3.9,53.56Z"/><path class="cls-22" d="M1913.77,663.92c-1.82-5.71-2.86-6.49-10.66-6.49h-39.26c-6.5,0-8.06.78-9.88,6.24l-9.1,27.29c-3.9,11.7-5.72,18.72-5.72,21.58,0,3.12,1.3,4.68,7.54,5.2l8.58.78c1.82,1.3,1.82,5.46-.52,6.5-6.76-.52-14.82-.52-27-.78-8.58,0-17.94.52-25,.78-1.56-1-2.08-5.2-.52-6.5l8.58-.78c6.24-.52,12-3.38,15.6-12.74,4.68-12,12-28.86,22.88-58l26.52-70.2c3.64-9.36,5.2-14.3,4.42-18.46,6.24-1.82,10.66-6.5,13.52-9.88,1.56,0,3.38.52,3.9,2.34,3.38,11.44,7.54,23.4,11.44,34.84l35.62,104.51c7.54,22.36,10.92,26.26,22.1,27.56l7,.78c1.82,1.3,1.3,5.46,0,6.5-10.66-.52-19.76-.78-31.46-.78-12.48,0-22.36.52-29.9.78-2.08-1-2.34-5.2-.52-6.5l7.54-.78c5.46-.52,9.1-2.08,9.1-4.68,0-2.86-1.3-7.54-3.38-13.78Zm-51.48-23.13c-2.08,6-1.82,6.24,5.46,6.24h32c7.54,0,8.06-1,5.72-8.06l-14-42.38c-2.08-6.24-4.42-13.26-6-16.38h-.52a158.47,158.47,0,0,0-6.24,15.34Z"/><path class="cls-22" d="M2024.27,591.91c0-24.7-.78-29.12-11.44-30.42l-8.32-1c-1.82-1.3-1.82-5.46.26-6.5,14.56-1.3,32.5-2.08,58-2.08,16.12,0,31.46,1.3,43.42,7.8,12.48,6.5,21.58,18.2,21.58,36.4,0,24.7-19.5,38.22-32.5,43.42-1.3,1.56,0,4.16,1.3,6.24,20.8,33.53,34.58,54.33,52.26,69.15a31.12,31.12,0,0,0,17.94,7.28,2.18,2.18,0,0,1,.26,3.64,40.47,40.47,0,0,1-11.44,1.3c-22.1,0-35.36-6.5-53.82-32.76-6.76-9.62-17.42-27.55-25.48-39.25-3.9-5.72-8.06-8.32-18.46-8.32-11.7,0-12.22.26-12.22,5.72v32.76c0,27.29.52,30.41,15.6,32.49l5.46.78c1.56,1.3,1,5.72-.52,6.5-11.7-.52-20.54-.78-30.94-.78-10.92,0-20.28.26-32.5.78-1.56-.78-2.08-4.68-.52-6.5l6.5-.78c15.08-1.82,15.6-5.2,15.6-32.49Zm21.32,37.18c0,4.68,0,7.54.78,8.58.78.78,4.68,1.3,17.94,1.3,9.36,0,19.24-1,26.78-6.76,7-5.46,13-14.56,13-32.24,0-20.54-12.74-40-41.6-40-16.12,0-16.9,1-16.9,8.32Z"/><path class="cls-22" d="M2255.41,684.72c0,27.82,1.56,32,15.6,33l9.88.78c1.56,1.56,1,5.72-.52,6.5-16.12-.52-25-.78-35.36-.78-10.92,0-20.28.26-34.06.78-1.56-.78-2.08-4.94-.52-6.5l8.06-.78c15.08-1.56,15.6-5.2,15.6-33V671.46c0-14.29-.78-17.67-8.32-32.23l-30.68-59.8c-8.84-17.16-12.74-18.46-20.54-19.76l-7.28-1.3c-1.56-1.82-1.3-5.46.52-6.5,8.32.52,17.68.78,30.16.78,12,0,21.32-.26,27.82-.78,2.34.78,2.34,4.94.78,6.5l-3.38.52c-9.1,1.3-10.92,2.6-10.92,4.68,0,2.6,6.76,17.42,8.06,20,9.62,19.24,19.24,39.78,29.38,57.72,8.06-13.78,16.64-28.86,24.44-43.94,7.28-13.52,16.9-31.2,16.9-34.32,0-1.56-4.68-3.38-10.92-4.16l-4.68-.52c-1.82-1.82-1.56-5.46.52-6.5,9.36.52,16.9.78,25,.78s15.34-.26,24.18-.78a4.36,4.36,0,0,1,.51,6.5l-7.28,1.3C2304.81,562,2297,578.39,2284,600.75l-16.38,28.34c-11.44,19.76-12.22,22.1-12.22,42.12Z"/><path class="cls-22" d="M965.82,453.24c0,17.33.33,19.8,9.9,20.63l5.28.49c1,.66.66,3.63-.33,4.13-9.41-.33-15-.5-21.62-.5s-12.37.17-22.93.5c-1-.5-1.32-3.3,0-4.13l5.94-.49c9.41-.83,10.23-3.3,10.23-20.63V379.49c0-5.11,0-5.28-4.95-5.28h-9.07c-7.1,0-16.17.33-20.3,4.13-4,3.63-5.61,7.26-7.42,11.38-1.32,1-3.63.17-4.29-1.15A174.68,174.68,0,0,0,912.53,364c.49-.33,2.64-.49,3.13,0,1,5.28,6.44,5.12,14,5.12h66.82c8.91,0,10.39-.33,12.87-4.62.82-.33,2.64-.17,3,.49-1.82,6.77-3,20.13-2.48,25.08-.66,1.32-3.46,1.32-4.29.33-.49-4.12-1.65-10.23-4.12-12-3.8-2.81-10.07-4.13-19.14-4.13H970.6c-5,0-4.78.17-4.78,5.61Z"/><path class="cls-22" d="M1081.65,424.7c-7.92,0-8.25.33-8.25,5.28v23.26c0,17.33.82,19.64,10.06,20.63l4.79.49c1,.66.66,3.63-.33,4.13-8.91-.33-14.52-.5-21-.5-7.09,0-12.7.33-19.14.5-1-.5-1.32-3.14-.33-4.13l2.81-.49c9.24-1.65,9.57-3.3,9.57-20.63V393.85c0-17.33-1.16-20.13-9.74-20.79l-4.29-.33c-1-.66-.66-3.63.33-4.13,8.09.17,13.7.5,20.79.5,6.44,0,12-.17,19.14-.5,1,.5,1.32,3.47.33,4.13l-3.13.33c-9.57,1-9.9,3.46-9.9,20.79v19c0,5.12.33,5.28,8.25,5.28h47.19c7.92,0,8.25-.16,8.25-5.28v-19c0-17.33-.33-19.8-10.07-20.79l-3.13-.33c-1-.66-.66-3.63.33-4.13,7.59.33,13.2.5,20,.5,6.44,0,12-.17,19.47-.5,1,.5,1.32,3.47.33,4.13l-3.46.33c-9.57,1-9.9,3.46-9.9,20.79v59.39c0,17.33.33,19.47,9.9,20.63l4,.49c1,.66.66,3.63-.33,4.13-7.92-.33-13.53-.5-20-.5-6.76,0-12.7.17-20,.5-1-.5-1.32-3.14-.33-4.13l3.13-.49c10.07-1.65,10.07-3.3,10.07-20.63V430c0-5-.33-5.28-8.25-5.28Z"/><path class="cls-22" d="M1217.61,393.85c0-17.16-.33-19.64-10.07-20.79l-2.64-.33c-1-.66-.66-3.63.33-4.13,7.1.33,12.71.5,19.47.5h31c10.56,0,20.3,0,22.28-.5,1,2.81,2,14.69,2.64,21.95-.66,1-3.3,1.32-4.13.33-2.47-7.76-4-13.53-12.54-15.68-3.46-.82-8.74-1-16-1h-11.88c-4.95,0-4.95.33-4.95,6.6v33c0,4.62.49,4.62,5.44,4.62h9.57c6.93,0,12-.33,14-1s3.13-1.65,4-5.77l1.32-6.77c.82-1,3.63-1,4.29.17,0,4-.66,10.39-.66,16.66,0,5.94.66,12.21.66,15.84-.66,1.15-3.47,1.15-4.29.16L1264,431.3c-.66-3-1.81-5.44-5.11-6.27-2.31-.66-6.27-.82-12.71-.82h-9.57c-4.95,0-5.44.16-5.44,4.45v23.26c0,8.75.49,14.36,3.13,17.16,2,2,5.45,3.8,20,3.8,12.7,0,17.49-.66,21.12-2.48,3-1.65,7.42-7.42,11.71-16a3,3,0,0,1,4.13,1.15c-1.16,5.78-5.28,18.48-7.43,22.94-14.85-.33-29.53-.5-44.22-.5H1224.7c-7.09,0-12.7.17-22.44.5-1-.5-1.32-3.14-.33-4.13l5.45-.49c9.4-.83,10.23-3.3,10.23-20.63Z"/><path class="cls-22" d="M1325.19,424.7c0-33,24.75-58.24,58.74-58.24,38.11,0,57.25,27.55,57.25,56.59,0,33.33-25.41,57.58-57.25,57.58C1347.3,480.63,1325.19,454.4,1325.19,424.7Zm99.49,3.47c0-27.23-12-56.6-43.56-56.6-17.16,0-39.43,11.72-39.43,47.85,0,24.42,11.88,56.1,44.38,56.1C1405.87,475.52,1424.68,460.67,1424.68,428.17Z"/><path class="cls-22" d="M1494.64,393.85c0-17.33-.33-20-10.72-20.79l-4.13-.33c-1-.66-.66-3.63.33-4.13,9.24.33,14.85.5,21.45.5,6.44,0,12-.17,20.3-.5,1,.5,1.32,3.47.33,4.13l-4,.33c-9.74.82-10.07,3.46-10.07,20.79v57.41c0,10.4.5,14.69,3.47,17.82,1.81,1.82,4.95,3.8,18,3.8,14,0,17.49-.66,20.13-2.15,3.3-2,7.59-7.92,10.89-16.33,1-.83,4.13-.17,4.13,1,0,1.81-4.62,18.64-6.93,23.1-8.42-.33-24.09-.5-41.09-.5h-15.18c-6.93,0-12.21.17-21.45.5-1-.5-1.32-3.14-.33-4.13l5-.49c9.57-1,9.9-3.3,9.9-20.63Z"/><path class="cls-22" d="M1595.13,424.7c0-33,24.75-58.24,58.74-58.24,38.11,0,57.25,27.55,57.25,56.59,0,33.33-25.41,57.58-57.25,57.58C1617.24,480.63,1595.13,454.4,1595.13,424.7Zm99.49,3.47c0-27.23-12-56.6-43.56-56.6-17.16,0-39.43,11.72-39.43,47.85,0,24.42,11.88,56.1,44.38,56.1C1675.81,475.52,1694.62,460.67,1694.62,428.17Z"/><path class="cls-22" d="M1850.38,461.16c0,6.6,1,10.56,4,11.72a1.37,1.37,0,0,1-.16,2,37.2,37.2,0,0,0-8.09,1.48c-8.74,2.31-20.62,4.29-29.53,4.29-19.64,0-37.62-5.44-50.33-18.31a52,52,0,0,1-15.18-37.45c0-14,4.62-28.22,14.85-39.11,11.06-11.55,27.39-19.3,52.31-19.3a98.65,98.65,0,0,1,21,2.47c3.14.66,8.25,1.82,10.23,1.49,0,5.44,1,14,2.47,23.92-.49,1.32-3.46,1.49-4.45.5-4.62-17.82-17-23.43-33.82-23.43-32,0-46,22.77-46,47.52,0,31.67,16.34,56.59,49.5,56.59,10.23,0,16.34-2.15,18.15-4.95.83-1.16,1.65-4.13,1.65-9.41v-6.6c0-13.86-.49-14.85-10.72-16l-7.26-.83c-1.32-.66-1.16-3.63,0-4.12,4.78.33,13.86.49,23.59.49,6.44,0,12-.16,17.49-.49,1.15.66,1.32,3.13.16,4.12l-2.63.33c-6.93.83-7.1,5.45-7.1,13.86Z"/><path class="cls-22" d="M1912.59,394.18c0-17.49-.33-20.3-10.07-21.12l-4.12-.33c-1-.66-.66-3.63.33-4.13,8.25.33,13.86.5,20.79.5,6.6,0,12.21-.17,20.46-.5,1,.5,1.32,3.47.33,4.13l-4.13.33c-9.73.82-10.06,3.63-10.06,21.12v58.73c0,17.49.33,19.8,10.06,21l4.13.49c1,.66.66,3.63-.33,4.13-8.25-.33-13.86-.5-20.46-.5-6.93,0-12.54.17-20.79.5-1-.5-1.32-3.14-.33-4.13l4.12-.49c9.74-1.16,10.07-3.47,10.07-21Z"/><path class="cls-22" d="M2000,380.48c12-9.4,27.39-14,44.54-14a127.12,127.12,0,0,1,29.21,4,12.65,12.65,0,0,0,4.62.66c.16,3.79,1,14.19,2.31,24.25-.83,1.16-3.3,1.32-4.46.33-2.47-11.22-9.9-24.09-33.82-24.09-25.24,0-46.69,16-46.69,50.16,0,34.65,21.94,53.79,49,53.79,21.28,0,30.69-13.86,34.48-23.6,1.16-.82,3.63-.49,4.29.66-1.15,8.58-5.44,19.47-7.92,22.61a33,33,0,0,0-5.77,1.65c-3.63,1.32-15.51,3.79-26.07,3.79-14.85,0-29-3-41.08-11.05-13.2-9.08-23.43-24.09-23.43-45.37C1979.25,405.89,1987.5,390.22,2000,380.48Z"/><path class="cls-22" d="M2178.73,439.71c-1.16-3.62-1.82-4.12-6.76-4.12h-24.92c-4.12,0-5.11.5-6.27,4L2135,456.87c-2.48,7.43-3.63,11.88-3.63,13.7,0,2,.82,3,4.78,3.3l5.45.49c1.15.83,1.15,3.47-.33,4.13-4.29-.33-9.41-.33-17.16-.5-5.45,0-11.39.33-15.84.5-1-.66-1.32-3.3-.33-4.13l5.44-.49c4-.33,7.59-2.15,9.9-8.09,3-7.59,7.59-18.31,14.52-36.79l16.83-44.55c2.31-5.94,3.3-9.07,2.81-11.71,4-1.16,6.76-4.13,8.58-6.27a2.33,2.33,0,0,1,2.47,1.48c2.15,7.26,4.78,14.85,7.26,22.11l22.6,66.33c4.79,14.19,6.93,16.66,14,17.49l4.45.49c1.16.83.83,3.47,0,4.13-6.76-.33-12.54-.5-20-.5-7.92,0-14.19.33-19,.5-1.31-.66-1.48-3.3-.33-4.13l4.79-.49c3.46-.33,5.77-1.32,5.77-3,0-1.82-.82-4.79-2.14-8.75ZM2146.06,425c-1.32,3.8-1.15,4,3.47,4h20.29c4.78,0,5.12-.66,3.63-5.11l-8.91-26.9a108.73,108.73,0,0,0-3.79-10.39h-.33a97,97,0,0,0-4,9.73Z"/><path class="cls-22" d="M2260.24,393.85c0-17.33-.33-20-10.72-20.79l-4.13-.33c-1-.66-.66-3.63.33-4.13,9.24.33,14.85.5,21.45.5,6.43,0,12-.17,20.29-.5,1,.5,1.32,3.47.33,4.13l-4,.33c-9.73.82-10.06,3.46-10.06,20.79v57.41c0,10.4.49,14.69,3.46,17.82,1.82,1.82,4.95,3.8,18,3.8,14,0,17.49-.66,20.13-2.15,3.3-2,7.59-7.92,10.89-16.33,1-.83,4.12-.17,4.12,1,0,1.81-4.62,18.64-6.93,23.1-8.41-.33-24.09-.5-41.08-.5h-15.18c-6.93,0-12.21.17-21.45.5-1-.5-1.32-3.14-.33-4.13l5-.49c9.57-1,9.9-3.3,9.9-20.63Z"/></g></g></svg>